<?xml version="1.0" encoding="UTF-8"?>
<svg xmlns="http://www.w3.org/2000/svg" width="1024" height="1024" viewBox="0 0 1024 1024">
<g id="centerline-paths">
  <path id="path-1" d="M436.65 486.16 C452.92 472.03 527.59 408.21 551.5 386.44 C575.41 364.67 595.57 343.4 605.44 332.5 C615.31 321.6 617.26 316.44 621.19 309.5 C625.12 302.56 630.04 294.83 633.19 283.5 C636.34 272.17 642.27 241.82 643.44 229.5 C644.61 217.18 642.75 205.99 641.44 196.5 C640.13 187.01 637.2 171.43 634.19 162.5 C631.18 153.57 624.68 141.01 620.19 133.5 C615.7 125.99 607.98 115.87 602.5 109.5 C597.02 103.13 589.43 94.6 581.5 88.56 C573.57 82.52 556.98 71.83 546.5 66.88 C536.02 61.92 518.55 56.16 507.5 53.56 C496.45 50.97 480.26 48.7 468.5 48.56 C456.74 48.42 434.84 50.83 424.5 52.56 C414.16 54.3 403.43 57.8 395.5 60.81 C387.57 63.82 376.01 69.31 368.5 73.81 C360.99 78.31 349.82 86.09 342.5 92.56 C335.18 99.03 323.42 110.58 316.81 119.5 C310.21 128.42 300.16 145.87 295.88 155.5 C291.59 165.13 288.45 178.01 286.56 187.5 C284.68 196.99 282.24 210.74 282.56 222.5 C282.88 234.26 285.24 257.32 288.81 270.5 C292.39 283.68 290.62 289.86 307.81 315.5 C325.01 341.14 394.92 430.39 410.19 451.5 C425.45 472.61 411.81 459.59 415.56 464.5 C419.31 469.41 433.66 483.09 436.65 486.16" stroke="#000000" stroke-width="45" fill="none" stroke-linecap="round" stroke-linejoin="round" />
  <path id="path-2" d="M436.65 486.16 C433.8 489.17 421.05 503.7 416.5 507.44 C411.95 511.18 428.3 492.85 404.5 512.56 C380.7 532.27 274.7 623.48 248.5 646.56 C222.3 669.65 226.26 667.43 219.56 675.5 C212.87 683.57 205.78 693.16 201.25 703.5 C196.72 713.84 189.94 738.02 187.56 748.5 C185.19 758.98 184.64 769.28 184.5 777.5 C184.36 785.72 184.39 794.46 186.56 806.5 C188.73 818.54 194.57 848.62 199.81 862.5 C205.05 876.38 216.67 894.73 223.56 904.5 C230.46 914.27 242.56 925.84 248.5 931.5 C254.44 937.16 256.43 939.52 265.5 944.44 C274.57 949.35 301.45 962.22 312.5 966.19 C323.55 970.15 331.32 970.98 343.5 972.44 C355.68 973.9 376.97 976.36 398.5 976.5 C420.03 976.64 474.53 975.18 495.5 973.44 C516.47 971.69 532.05 968.39 546.5 964.19 C560.95 959.98 584.75 949.98 597.5 943.75 C610.25 937.52 619.85 932.55 636.5 920.19 C653.15 907.83 703.88 865.51 715 856.49" stroke="#000000" stroke-width="45" fill="none" stroke-linecap="round" stroke-linejoin="round" />
  <path id="path-3" d="M436.65 486.16 C439.74 489.32 454.59 503.49 458.44 508.5 C462.29 513.51 452.04 505.21 463.81 521.5 C475.59 537.79 510.29 583.55 541.56 623.5 C572.84 663.45 661.9 776.72 684.56 803.5 C707.22 830.28 697.19 809.37 701.5 812.56 C705.81 815.75 713.09 824.1 715.01 826.01" stroke="#000000" stroke-width="45" fill="none" stroke-linecap="round" stroke-linejoin="round" />
  <path id="path-4" d="M719.83 825.84 C722.89 823.24 732.1 819.87 741.44 807.5 C750.78 795.13 775.59 757.2 785.75 738.5 C795.91 719.8 806.56 694.77 813.19 675.5 C819.81 656.23 829.76 612.84 832.5 602.5" stroke="#000000" stroke-width="45" fill="none" stroke-linecap="round" stroke-linejoin="round" />
  <path id="path-5" d="M720 857 C722.19 859.18 732.07 869.67 735.5 872.44 C738.93 875.21 732.77 863.34 744.19 876.56 C755.6 889.78 806.1 953.43 816.06 965.75 C826.02 978.07 814.72 963.82 814.5 963.5" stroke="#000000" stroke-width="45" fill="none" stroke-linecap="round" stroke-linejoin="round" />
  <path id="path-6" d="M219.5 676.5 L247.5 647.5" stroke="#000000" stroke-width="45" fill="none" stroke-linecap="round" stroke-linejoin="round" />
  <path id="path-7" d="M271.5 625.5 L298.5 601.5" stroke="#000000" stroke-width="45" fill="none" stroke-linecap="round" stroke-linejoin="round" />
  <path id="path-8" d="M436.65 486.16 L459.5 463.5" stroke="#000000" stroke-width="45" fill="none" stroke-linecap="round" stroke-linejoin="round" />
  <path id="path-9" d="M436.65 486.16 L414.5 508.5" stroke="#000000" stroke-width="45" fill="none" stroke-linecap="round" stroke-linejoin="round" />
  <path id="path-10" d="M717.5 854.5 L717.5 828.01" stroke="#000000" stroke-width="45" fill="none" stroke-linecap="round" stroke-linejoin="round" />
  <path id="path-11" d="M574.5 364.5 L591.5 347.5" stroke="#000000" stroke-width="45" fill="none" stroke-linecap="round" stroke-linejoin="round" />
  <path id="path-12" d="M715 856.49 L698.5 872.5" stroke="#000000" stroke-width="45" fill="none" stroke-linecap="round" stroke-linejoin="round" />
  <path id="path-13" d="M719.83 825.84 L733.5 812.5" stroke="#000000" stroke-width="45" fill="none" stroke-linecap="round" stroke-linejoin="round" />
  <path id="path-14" d="M320.5 582.5 L334.5 571.5" stroke="#000000" stroke-width="45" fill="none" stroke-linecap="round" stroke-linejoin="round" />
  <path id="path-15" d="M329.5 104.5 L342.5 92.5" stroke="#000000" stroke-width="45" fill="none" stroke-linecap="round" stroke-linejoin="round" />
  <path id="path-16" d="M593.5 100.5 L603.5 110.5" stroke="#000000" stroke-width="45" fill="none" stroke-linecap="round" stroke-linejoin="round" />
  <path id="path-17" d="M584.5 90.5 L594.5 100.5" stroke="#000000" stroke-width="45" fill="none" stroke-linecap="round" stroke-linejoin="round" />
  <path id="path-18" d="M483.5 447.5 L493.5 438.5" stroke="#000000" stroke-width="45" fill="none" stroke-linecap="round" stroke-linejoin="round" />
  <path id="path-19" d="M262.5 633.5 L271.5 625.5" stroke="#000000" stroke-width="45" fill="none" stroke-linecap="round" stroke-linejoin="round" />
  <path id="path-20" d="M510.5 422.5 L502.5 430.5" stroke="#000000" stroke-width="45" fill="none" stroke-linecap="round" stroke-linejoin="round" />
  <path id="path-21" d="M512.5 422.5 L520.5 414.5" stroke="#000000" stroke-width="45" fill="none" stroke-linecap="round" stroke-linejoin="round" />
  <path id="path-22" d="M593.5 344.5 L601.5 336.5" stroke="#000000" stroke-width="45" fill="none" stroke-linecap="round" stroke-linejoin="round" />
  <path id="path-23" d="M558.5 379.5 L566.5 372.5" stroke="#000000" stroke-width="45" fill="none" stroke-linecap="round" stroke-linejoin="round" />
  <path id="path-24" d="M476.5 454.5 L483.5 447.5" stroke="#000000" stroke-width="45" fill="none" stroke-linecap="round" stroke-linejoin="round" />
  <path id="path-25" d="M558.5 379.5 L552.5 385.5" stroke="#000000" stroke-width="45" fill="none" stroke-linecap="round" stroke-linejoin="round" />
  <path id="path-26" d="M546.5 390.5 L540.5 396.5" stroke="#000000" stroke-width="45" fill="none" stroke-linecap="round" stroke-linejoin="round" />
  <path id="path-27" d="M678.5 885.5 L672.5 891.5" stroke="#000000" stroke-width="45" fill="none" stroke-linecap="round" stroke-linejoin="round" />
  <path id="path-28" d="M563.5 76.5 L570.5 80.5" stroke="#000000" stroke-width="45" fill="none" stroke-linecap="round" stroke-linejoin="round" />
  <path id="path-29" d="M323.5 110.5 L329.5 104.5" stroke="#000000" stroke-width="45" fill="none" stroke-linecap="round" stroke-linejoin="round" />
  <path id="path-30" d="M249.5 645.5 L255.5 639.5" stroke="#000000" stroke-width="45" fill="none" stroke-linecap="round" stroke-linejoin="round" />
  <path id="path-31" d="M433.5 482.5 L439.5 483.5" stroke="#000000" stroke-width="45" fill="none" stroke-linecap="round" stroke-linejoin="round" />
  <path id="path-32" d="M533.5 402.5 L539.5 397.5" stroke="#000000" stroke-width="45" fill="none" stroke-linecap="round" stroke-linejoin="round" />
  <path id="path-33" d="M678.5 885.5 L684.5 880.5" stroke="#000000" stroke-width="45" fill="none" stroke-linecap="round" stroke-linejoin="round" />
  <path id="path-34" d="M436.65 486.16 L433.5 490.5" stroke="#000000" stroke-width="45" fill="none" stroke-linecap="round" stroke-linejoin="round" />
  <path id="path-35" d="M436.65 486.16 L440.5 482.5" stroke="#000000" stroke-width="45" fill="none" stroke-linecap="round" stroke-linejoin="round" />
  <path id="path-36" d="M717.5 854.5 L720 857" stroke="#000000" stroke-width="45" fill="none" stroke-linecap="round" stroke-linejoin="round" />
  <path id="path-37" d="M717.5 854.5 L715 856.49" stroke="#000000" stroke-width="45" fill="none" stroke-linecap="round" stroke-linejoin="round" />
  <path id="path-38" d="M719.83 825.84 L717.5 828.01" stroke="#000000" stroke-width="45" fill="none" stroke-linecap="round" stroke-linejoin="round" />
  <path id="path-39" d="M719.83 825.84 L717.5 828.01" stroke="#000000" stroke-width="45" fill="none" stroke-linecap="round" stroke-linejoin="round" />
  <path id="path-40" d="M715.01 826.01 L717.5 828.01" stroke="#000000" stroke-width="45" fill="none" stroke-linecap="round" stroke-linejoin="round" />
  <path id="path-41" d="M717.5 854.5 L715 856.49" stroke="#000000" stroke-width="45" fill="none" stroke-linecap="round" stroke-linejoin="round" />
</g>
</svg>
