<?xml version="1.0" encoding="UTF-8"?>
<svg xmlns="http://www.w3.org/2000/svg" width="1024" height="1024" viewBox="0 0 1024 1024">
<g id="centerline-paths">
  <path id="path-1" d="M971.5 145.5 C880.12 145.36 423.82 144.35 326.5 144.5 C229.18 144.65 292.71 145.56 284.5 146.56 C276.29 147.56 271.67 147.6 268.56 151.56 C265.45 155.52 263.56 166.29 262.56 174.5 C261.56 182.71 261.79 117.84 261.5 209.5 C261.21 301.16 261.49 733.74 260.5 821.5 C259.51 909.26 255.34 827.94 254.49 829.01" stroke="#000000" stroke-width="45" fill="none" stroke-linecap="round" stroke-linejoin="round" />
  <path id="path-2" d="M254.5 833 C254.97 834.48 256.11 841.53 257.81 843.44 C259.51 845.34 257.34 848.46 266.5 846.44 C275.66 844.42 290.02 855.61 322.5 829.19 C354.98 802.77 492.63 662.58 495.75 659.94 C498.87 657.29 365.93 789.17 344.5 810.5" stroke="#000000" stroke-width="45" fill="none" stroke-linecap="round" stroke-linejoin="round" />
  <path id="path-3" d="M249.5 828.5 C242.56 826.08 222.82 829.46 200.5 811.44 C178.18 793.41 100.3 709.74 91.94 701.25 C83.58 692.76 134.48 744.38 141.5 751.5" stroke="#000000" stroke-width="45" fill="none" stroke-linecap="round" stroke-linejoin="round" />
  <path id="path-4" d="M159.5 770.5 L185.5 796.5" stroke="#000000" stroke-width="45" fill="none" stroke-linecap="round" stroke-linejoin="round" />
  <path id="path-5" d="M188.5 800.5 L200.5 811.5" stroke="#000000" stroke-width="45" fill="none" stroke-linecap="round" stroke-linejoin="round" />
  <path id="path-6" d="M254.49 829.01 L260.5 822.5" stroke="#000000" stroke-width="45" fill="none" stroke-linecap="round" stroke-linejoin="round" />
  <path id="path-7" d="M254.49 829.01 L249.5 828.5" stroke="#000000" stroke-width="45" fill="none" stroke-linecap="round" stroke-linejoin="round" />
  <path id="path-8" d="M254.5 833 L254.49 829.01" stroke="#000000" stroke-width="45" fill="none" stroke-linecap="round" stroke-linejoin="round" />
</g>
</svg>
