<?xml version="1.0" encoding="UTF-8"?>
<svg xmlns="http://www.w3.org/2000/svg" width="1024" height="1024" viewBox="0 0 1024 1024">
<g id="centerline-paths">
  <path id="path-1" d="M262.5 544.5 C260.94 557.67 252.62 616.53 251.5 637.5 C250.38 658.47 252.29 672.38 254.56 692.5 C256.84 712.62 264.13 761.65 267.56 779.5 C271 797.35 273.68 805.61 278.81 818.5 C283.95 831.39 296.48 858.32 303.81 870.5 C311.14 882.68 323.38 896.72 330.56 904.5 C337.74 912.28 345.02 918.97 354.5 925.44 C363.98 931.9 385.6 944.64 397.5 950.12 C409.4 955.61 424.33 960.74 438.5 964.19 C452.67 967.63 481.35 972.84 497.5 974.44 C513.65 976.03 538.33 976.18 552.5 975.44 C566.67 974.69 584.47 972.54 597.5 969.19 C610.53 965.83 632.88 957.52 644.5 951.75 C656.12 945.98 670.44 935.84 679.5 928.44 C688.56 921.04 700.19 909.69 708.44 899.5 C716.69 889.31 729.43 872.51 737.75 856.5 C746.07 840.49 761.42 803.5 767.19 786.5 C772.95 769.5 776.55 753.22 778.44 736.5 C780.32 719.78 781.77 689.04 780.5 668.5 C779.23 647.96 773.37 609.63 769.44 591.5 C765.51 573.37 758.98 554.67 752.75 540.5 C746.52 526.33 731.85 501.56 725.44 491.5 C719.03 481.44 713.72 476.01 707.5 469.5 C701.28 462.99 690.71 452.31 681.5 445.56 C672.29 438.82 655.82 427.82 642.5 421.88 C629.18 415.93 603.79 407.16 587.5 403.56 C571.21 399.97 545.07 396.64 527.5 396.5 C509.93 396.36 478.8 399.68 463.5 402.56 C448.2 405.44 430.83 411.96 419.5 416.81 C408.17 421.66 395.26 428.07 383.5 436.81 C371.74 445.55 347.55 466.79 336.5 478.5 C325.45 490.21 315.13 510.94 305.5 519.44 C295.87 527.94 273.74 535.8 268.5 538.5" stroke="#000000" stroke-width="45" fill="none" stroke-linecap="round" stroke-linejoin="round" />
  <path id="path-2" d="M262.51 539.51 C260.82 537.67 252.12 539.68 250.56 526.5 C249 513.32 249.94 472.57 251.5 446.5 C253.06 420.43 258.12 366.3 261.56 342.5 C265.01 318.7 270.53 296.21 275.81 278.5 C281.1 260.79 292.07 232.23 298.88 217.5 C305.68 202.77 317.41 184.28 323.88 174.5 C330.34 164.72 335.77 157.56 344.5 148.5 C353.23 139.44 372.18 120.66 385.5 110.56 C398.82 100.47 423.34 85.01 438.5 77.25 C453.66 69.49 476.49 60.03 492.5 55.81 C508.51 51.6 538.18 48.24 551.5 47.5 C564.82 46.76 575.88 48.68 586.5 50.56 C597.12 52.45 613.04 55.24 626.5 60.81 C639.96 66.38 666.62 79.44 681.5 89.88 C696.38 100.31 720.73 123.5 731.5 134.5 C742.27 145.5 753.82 162.82 757.5 167.5" stroke="#000000" stroke-width="45" fill="none" stroke-linecap="round" stroke-linejoin="round" />
  <path id="path-3" d="M396.5 102.5 L388.5 108.5" stroke="#000000" stroke-width="45" fill="none" stroke-linecap="round" stroke-linejoin="round" />
  <path id="path-4" d="M347.5 466.5 L355.5 459.5" stroke="#000000" stroke-width="45" fill="none" stroke-linecap="round" stroke-linejoin="round" />
  <path id="path-5" d="M428.5 82.5 L420.5 87.5" stroke="#000000" stroke-width="45" fill="none" stroke-linecap="round" stroke-linejoin="round" />
  <path id="path-6" d="M351.5 140.5 L357.5 134.5" stroke="#000000" stroke-width="45" fill="none" stroke-linecap="round" stroke-linejoin="round" />
  <path id="path-7" d="M266.5 539 L273.5 535.5" stroke="#000000" stroke-width="45" fill="none" stroke-linecap="round" stroke-linejoin="round" />
  <path id="path-8" d="M262.5 544.5 L262.51 539.51" stroke="#000000" stroke-width="45" fill="none" stroke-linecap="round" stroke-linejoin="round" />
  <path id="path-9" d="M266.5 539 L263.5 541.5" stroke="#000000" stroke-width="45" fill="none" stroke-linecap="round" stroke-linejoin="round" />
</g>
</svg>
