<?xml version="1.0" encoding="UTF-8"?>
<svg xmlns="http://www.w3.org/2000/svg" width="1024" height="1024" viewBox="0 0 1024 1024">
<g id="centerline-paths">
  <path id="path-1" d="M596 506 C598.06 509.75 599.44 523.96 610.56 532.44 C621.68 540.91 659.22 555.6 674.5 565.81 C689.78 576.02 709.28 594.63 718.44 604.5 C727.59 614.37 734.02 624.59 739.12 635.5 C744.23 646.41 751.55 666.2 754.44 681.5 C757.32 696.8 759.96 725.51 759.5 743.5 C759.04 761.49 755.21 792.21 751.19 808.5 C747.17 824.79 740.43 843.77 731.12 858.5 C721.82 873.23 698.06 900.28 685.5 912.5 C672.94 924.72 652.56 938.14 642.5 944.75 C632.44 951.36 623.42 955.44 614.5 959.19 C605.58 962.93 593.52 968.31 579.5 971.19 C565.48 974.07 532.92 979.18 515.5 979.5 C498.07 979.82 473.64 977.03 456.5 973.44 C439.36 969.84 408.67 959.69 394.5 954.12 C380.33 948.56 365.43 939.46 356.5 934.12 C347.57 928.79 339.86 923.33 331.5 916.44 C323.14 909.55 303.97 892.01 297.5 885.5 C291.03 878.99 289.17 875.6 285.81 870.5 C282.46 865.4 276.69 856.16 273.81 849.5 C270.93 842.84 266.68 827.18 265.5 823.5" stroke="#000000" stroke-width="45" fill="none" stroke-linecap="round" stroke-linejoin="round" />
  <path id="path-2" d="M596 506 C598.19 502.68 602.22 489.76 611.5 482.56 C620.78 475.36 649.04 463.84 661.5 455.19 C673.96 446.54 691.33 430.24 699.44 421.5 C707.55 412.76 713.37 404.27 718.75 393.5 C724.13 382.73 733.79 360.23 737.44 345.5 C741.09 330.77 744.36 306.78 744.5 289.5 C744.64 272.22 741.8 241.07 738.44 223.5 C735.07 205.93 725.19 177.4 720.75 165.5 C716.31 153.6 711.84 146.87 707.12 139.5 C702.41 132.13 693.26 120.15 687.5 113.5 C681.74 106.85 672.45 97.61 666.5 92.56 C660.55 87.52 656.27 83.36 645.5 77.88 C634.73 72.39 607.08 58.54 590.5 53.81 C573.92 49.08 545.92 45.24 528.5 44.5 C511.07 43.76 484.93 45.54 467.5 48.56 C450.07 51.58 421.65 59.4 405.5 65.81 C389.35 72.22 366.81 84.51 353.5 93.81 C340.19 103.12 320.01 122.34 311.56 131.5 C303.12 140.66 297.71 151.56 293.88 158.5 C290.04 165.44 285.83 177.38 284.5 180.5" stroke="#000000" stroke-width="45" fill="none" stroke-linecap="round" stroke-linejoin="round" />
  <path id="path-3" d="M500.5 508.5 L593.5 508.5" stroke="#000000" stroke-width="45" fill="none" stroke-linecap="round" stroke-linejoin="round" />
  <path id="path-4" d="M675.5 100.5 L685.5 110.5" stroke="#000000" stroke-width="45" fill="none" stroke-linecap="round" stroke-linejoin="round" />
  <path id="path-5" d="M664.5 929.5 L673.5 922.5" stroke="#000000" stroke-width="45" fill="none" stroke-linecap="round" stroke-linejoin="round" />
  <path id="path-6" d="M323.5 118.5 L331.5 111.5" stroke="#000000" stroke-width="45" fill="none" stroke-linecap="round" stroke-linejoin="round" />
  <path id="path-7" d="M596 506 L601.5 497.5" stroke="#000000" stroke-width="45" fill="none" stroke-linecap="round" stroke-linejoin="round" />
  <path id="path-8" d="M376.5 944.5 L383.5 948.5" stroke="#000000" stroke-width="45" fill="none" stroke-linecap="round" stroke-linejoin="round" />
  <path id="path-9" d="M626.5 952.5 L633.5 949.5" stroke="#000000" stroke-width="45" fill="none" stroke-linecap="round" stroke-linejoin="round" />
  <path id="path-10" d="M288.5 874.5 L293.5 880.5" stroke="#000000" stroke-width="45" fill="none" stroke-linecap="round" stroke-linejoin="round" />
  <path id="path-11" d="M683.5 913.5 L689.5 908.5" stroke="#000000" stroke-width="45" fill="none" stroke-linecap="round" stroke-linejoin="round" />
  <path id="path-12" d="M596 506 L593.5 508.5" stroke="#000000" stroke-width="45" fill="none" stroke-linecap="round" stroke-linejoin="round" />
</g>
</svg>
