<?xml version="1.0" encoding="UTF-8"?>
<!-- Generator: visioncortex VTracer 0.6.12 -->
<svg version="1.1" xmlns="http://www.w3.org/2000/svg" width="538" height="552">
<path d="M0 0 C10.652 10.9 16.514 23.971 17.133 39.289 C16.525 53.986 10.353 66.726 0 77 C-12.335 87.511 -26.889 91.028 -42.75 90.218 C-57.293 88.81 -68.813 80.373 -78.062 69.57 C-81.042 65.617 -83.152 61.58 -85 57 C-85.318 56.268 -85.637 55.536 -85.965 54.781 C-90.09 43.68 -89.243 29.907 -85.34 18.906 C-83.142 14.138 -80.256 10.095 -77 6 C-76.68 5.546 -76.128 4.763 -75.062 3.25 C-67.361 -5.152 -56.173 -11.018 -45 -13 C-44.634 -13.066 -44.002 -13.181 -42.781 -13.402 C-26.729 -15.722 -12.035 -10.472 0 0 Z M-65.008 15.324 C-71.605 24.115 -74.128 33.051 -73 44 C-70.994 55.286 -64.165 63.387 -55 70 C-45.374 74.905 -35.461 76.687 -24.875 73.875 C-15.466 70.669 -7.482 64.425 -2.715 55.629 C1.59 46.232 3.089 35.628 -0.562 25.688 C-5.339 15.481 -12.746 7.993 -23.125 3.625 C-38.751 -1.526 -54.354 2.991 -65.008 15.324 Z " fill="#000000" transform="translate(391,98)"/>
<path d="M0 0 C7.009 -0.07 14.018 -0.117 21.027 -0.15 C23.849 -0.163 26.67 -0.183 29.492 -0.206 C33.498 -0.239 37.504 -0.246 41.511 -0.25 C42.117 -0.256 43.165 -0.267 45.187 -0.287 C46.309 -0.284 47.432 -0.281 48.589 -0.278 C49.078 -0.28 49.923 -0.283 51.555 -0.289 C54.767 0.147 56.651 1.184 59.261 3.078 C60.665 5.887 60.51 7.966 60.261 11.078 C58.913 13.572 58.136 14.796 55.409 15.674 C53.266 16.077 51.31 16.215 49.131 16.232 C48.316 16.241 47.502 16.249 46.663 16.258 C45.778 16.262 44.893 16.267 43.982 16.271 C43.043 16.279 42.104 16.287 41.137 16.296 C38.034 16.321 34.931 16.337 31.827 16.352 C30.767 16.357 29.707 16.362 28.614 16.368 C23.006 16.394 17.399 16.414 11.791 16.428 C7.147 16.442 2.504 16.469 -2.139 16.51 C-7.746 16.559 -13.352 16.584 -18.959 16.591 C-21.096 16.598 -23.232 16.613 -25.369 16.637 C-28.357 16.669 -31.343 16.669 -34.331 16.662 C-34.772 16.67 -35.535 16.684 -37.006 16.711 C-41.408 16.667 -43.193 16.498 -46.792 13.733 C-48.739 11.078 -48.739 11.078 -49.302 8.016 C-48.602 4.359 -47.644 3.362 -44.739 1.078 C-41.873 0.532 -41.873 0.532 -38.435 0.469 C-37.787 0.452 -37.14 0.435 -36.472 0.418 C-34.27 0.368 -32.068 0.347 -29.864 0.328 C-28.285 0.302 -26.705 0.275 -25.126 0.247 C-20.453 0.174 -15.78 0.136 -11.107 0.104 C-7.404 0.076 -3.702 0.038 0 0 Z " fill="#000000" transform="translate(115.7392578125,115.921875)"/>
<path d="M0 0 C0.348 -0.002 0.948 -0.007 2.107 -0.015 C4.382 -0.03 6.658 -0.036 8.933 -0.042 C9.324 -0.043 9.999 -0.046 11.302 -0.051 C15.431 -0.065 19.561 -0.075 23.69 -0.079 C27.949 -0.085 32.206 -0.109 36.464 -0.137 C39.748 -0.156 43.032 -0.161 46.316 -0.162 C47.886 -0.165 49.456 -0.173 51.026 -0.187 C53.221 -0.204 55.415 -0.202 57.609 -0.195 C58.856 -0.199 60.103 -0.203 61.388 -0.206 C64.952 0.192 66.833 1.013 69.675 3.161 C71.2 6.211 70.911 8.803 70.675 12.161 C69.293 14.235 68.365 14.926 66.026 15.722 C62.788 16.327 59.59 16.309 56.308 16.306 C55.94 16.308 55.305 16.311 54.08 16.317 C51.653 16.326 49.227 16.328 46.8 16.329 C45.112 16.332 43.423 16.336 41.734 16.339 C38.197 16.345 34.66 16.347 31.123 16.346 C26.59 16.346 22.057 16.36 17.524 16.377 C14.038 16.388 10.551 16.39 7.065 16.39 C5.394 16.391 3.722 16.395 2.051 16.403 C-0.285 16.413 -2.621 16.41 -4.958 16.404 C-5.648 16.41 -6.338 16.415 -7.048 16.421 C-10.635 16.398 -13.312 16.194 -16.325 14.161 C-18.247 11.598 -18.335 10.329 -18.137 7.099 C-17.103 3.358 -16.956 2.828 -14.325 1.161 C-9.521 0.303 -4.873 0.027 0 0 Z " fill="#000000" transform="translate(85.32470703125,165.8388671875)"/>
<path d="M0 0 C2 1.562 2 1.562 3 4 C3.582 10.307 1.827 14.929 -0.5 20.652 C-0.855 21.552 -1.21 22.453 -1.576 23.38 C-2.706 26.237 -3.853 29.087 -5 31.938 C-5.772 33.88 -6.543 35.824 -7.312 37.768 C-9.196 42.517 -11.094 47.26 -13 52 C-6.204 52.009 0.59 51.971 7.386 51.902 C9.694 51.884 12.002 51.877 14.311 51.88 C17.643 51.883 20.973 51.847 24.305 51.805 C24.815 51.809 25.696 51.817 27.396 51.832 C35.035 51.68 39.842 49.423 46 45 C46.597 44.589 47.194 44.177 47.809 43.753 C49.366 42.668 50.902 41.553 52.438 40.438 C67.303 29.946 82.113 27.528 100 29 C112.744 31.286 124.153 37.699 131.656 48.352 C137.791 58.064 140.143 67.47 140.161 78.926 C140.166 79.698 140.171 80.47 140.176 81.265 C140.191 83.804 140.198 86.343 140.203 88.883 C140.206 89.756 140.209 90.629 140.212 91.529 C140.227 96.153 140.236 100.776 140.24 105.4 C140.246 110.148 140.27 114.895 140.298 119.642 C140.317 123.317 140.322 126.993 140.324 130.668 C140.327 132.417 140.335 134.165 140.348 135.914 C140.449 150.315 139.208 162.688 131 175 C139.976 175.499 147.761 175.652 154.777 169.422 C160.322 163.403 162.343 156.718 163.402 148.734 C163.521 147.904 163.639 147.073 163.761 146.218 C164.023 144.377 164.279 142.536 164.532 140.694 C164.947 137.678 165.376 134.665 165.808 131.651 C167.377 120.669 168.906 109.681 170.432 98.692 C171.605 90.243 172.79 81.796 173.985 73.351 C174.788 67.67 175.576 61.987 176.354 56.302 C176.849 52.706 177.358 49.111 177.87 45.517 C178.108 43.825 178.341 42.132 178.568 40.438 C178.882 38.098 179.216 35.762 179.555 33.425 C179.642 32.742 179.729 32.059 179.819 31.356 C180.497 26.877 181.829 24.227 185 21 C187.438 20 187.438 20 190 20 C192.283 21.142 194.19 22.19 196 24 C197.05 35.487 194.787 46.972 193.078 58.285 C192.773 60.352 192.469 62.418 192.165 64.485 C191.366 69.912 190.556 75.338 189.743 80.763 C188.772 87.258 187.815 93.755 186.855 100.252 C186.082 105.481 185.306 110.709 184.522 115.935 C183.228 124.576 181.946 133.213 180.83 141.878 C180.661 143.161 180.492 144.444 180.319 145.766 C180.029 148.003 179.752 150.241 179.492 152.482 C177.926 164.482 173.46 175.184 164 183 C145.644 194.694 132.697 191 108 191 C108 218.39 108 245.78 108 274 C120.87 274 133.74 274 147 274 C150.41 277.41 151 278 151.438 281.562 C151.049 284.614 151 285 149.688 286.875 C145.575 289.617 141.11 289.169 136.369 289.193 C135.488 289.201 134.606 289.209 133.698 289.218 C130.779 289.242 127.86 289.259 124.941 289.273 C123.945 289.279 122.949 289.284 121.923 289.29 C116.653 289.316 111.384 289.336 106.114 289.35 C100.665 289.367 95.217 289.412 89.768 289.462 C85.582 289.496 81.397 289.508 77.211 289.513 C75.202 289.52 73.193 289.535 71.184 289.559 C68.376 289.591 65.569 289.591 62.76 289.583 C61.928 289.6 61.096 289.616 60.239 289.633 C56.282 289.59 54.431 289.402 51.488 286.655 C49.658 283.39 49.295 281.682 50 278 C55 274 68.795 274 92 274 C92 246.61 92 219.22 92 191 C84.761 191.082 77.521 191.165 70.062 191.25 C67.795 191.266 65.528 191.282 63.192 191.298 C61.369 191.327 59.546 191.358 57.723 191.391 C57.26 191.391 56.46 191.392 54.918 191.394 C48.018 191.544 41.807 192.61 36.497 197.339 C32.016 202.84 30.363 210.092 28.277 216.746 C27.847 218.085 27.415 219.423 26.982 220.761 C25.851 224.268 24.733 227.779 23.619 231.292 C21.836 236.909 20.036 242.521 18.228 248.13 C17.604 250.076 16.989 252.024 16.374 253.973 C11.875 268.012 7.182 276.694 -6 284 C-14.716 287.517 -22.953 286.656 -31.523 283.191 C-39.12 279.537 -43.219 273.409 -46.312 265.75 C-48.102 255.991 -46.794 247.612 -43.664 238.309 C-43.308 237.204 -42.952 236.099 -42.586 234.961 C-41.812 232.566 -41.031 230.173 -40.243 227.782 C-38.963 223.887 -37.711 219.985 -36.468 216.079 C-34.481 209.846 -32.469 203.622 -30.44 197.404 C-29.282 193.853 -28.128 190.301 -26.985 186.745 C-25.851 183.217 -24.706 179.693 -23.554 176.171 C-23.125 174.855 -22.7 173.539 -22.279 172.221 C-17.815 158.266 -12.774 145.768 0.387 138.32 C12.04 132.433 23.83 132.909 36.562 133.438 C37.967 133.491 39.371 133.544 40.775 133.596 C44.184 133.725 47.592 133.861 51 134 C51 126.08 51 118.16 51 110 C48.34 110.005 45.68 110.01 42.939 110.016 C34.018 110.033 25.098 110.044 16.177 110.052 C10.784 110.057 5.39 110.064 -0.003 110.075 C-5.236 110.087 -10.468 110.092 -15.701 110.095 C-17.669 110.097 -19.637 110.1 -21.605 110.106 C-38.42 110.151 -55.199 109.636 -72 109 C-71.996 109.903 -71.993 110.807 -71.989 111.737 C-71.901 133.703 -71.834 155.669 -71.793 177.635 C-71.772 188.258 -71.744 198.88 -71.698 209.503 C-71.658 218.76 -71.633 228.017 -71.624 237.274 C-71.618 242.177 -71.606 247.08 -71.577 251.983 C-71.55 256.595 -71.542 261.208 -71.548 265.821 C-71.546 267.516 -71.538 269.21 -71.523 270.905 C-71.503 273.216 -71.508 275.526 -71.519 277.837 C-71.515 279.132 -71.512 280.426 -71.508 281.759 C-72.085 285.558 -72.965 286.723 -76 289 C-81.438 290.567 -87.352 290.162 -92.975 290.177 C-94.07 290.184 -95.165 290.19 -96.293 290.197 C-99.905 290.217 -103.517 290.228 -107.129 290.238 C-108.364 290.242 -109.599 290.246 -110.871 290.251 C-116.728 290.269 -122.585 290.284 -128.441 290.292 C-135.191 290.302 -141.941 290.328 -148.691 290.369 C-154.548 290.403 -160.405 290.414 -166.263 290.418 C-168.751 290.423 -171.239 290.435 -173.728 290.453 C-177.204 290.478 -180.679 290.477 -184.155 290.47 C-184.669 290.476 -185.558 290.487 -187.273 290.509 C-191.503 290.478 -194.309 290.353 -198.115 288.408 C-201.821 283.673 -201.127 277.194 -201.14 271.396 C-201.143 270.663 -201.146 269.93 -201.149 269.174 C-201.158 266.734 -201.16 264.293 -201.161 261.853 C-201.166 260.097 -201.171 258.34 -201.176 256.584 C-201.189 251.826 -201.196 247.068 -201.2 242.31 C-201.203 239.336 -201.207 236.363 -201.212 233.39 C-201.225 224.085 -201.235 214.78 -201.239 205.475 C-201.243 194.737 -201.261 183.999 -201.29 173.26 C-201.311 164.954 -201.322 156.649 -201.323 148.343 C-201.324 143.383 -201.33 138.424 -201.348 133.465 C-201.364 128.804 -201.366 124.144 -201.358 119.483 C-201.357 117.773 -201.361 116.062 -201.371 114.352 C-201.384 112.018 -201.378 109.684 -201.367 107.35 C-201.369 106.043 -201.37 104.737 -201.372 103.391 C-200.975 99.768 -200.193 97.879 -198 95 C-195.416 93.708 -193.567 93.877 -190.672 93.88 C-189.542 93.878 -188.412 93.877 -187.247 93.876 C-186.624 93.877 -185.549 93.88 -183.472 93.886 C-182.165 93.886 -180.858 93.886 -179.511 93.886 C-175.92 93.886 -172.329 93.892 -168.739 93.899 C-164.988 93.905 -161.238 93.905 -157.488 93.907 C-150.383 93.91 -143.279 93.918 -136.175 93.928 C-128.088 93.939 -120.001 93.945 -111.914 93.95 C-95.276 93.96 -78.638 93.978 -62 94 C-62.324 92.76 -62.647 91.52 -62.98 90.242 C-65.012 82.456 -64.298 75.331 -61 68 C-58.96 64.979 -56.658 62.486 -54 60 C-53.475 59.505 -52.951 59.01 -52.41 58.5 C-47.088 54.128 -39.412 51.948 -32.563 52.029 C-29.45 50.779 -29.312 50.13 -28.011 47.142 C-27.359 45.423 -26.729 43.695 -26.117 41.961 C-25.776 41.047 -25.435 40.133 -25.084 39.191 C-23.995 36.259 -22.935 33.318 -21.875 30.375 C-20.802 27.456 -19.723 24.54 -18.645 21.624 C-17.975 19.808 -17.311 17.99 -16.651 16.171 C-15.781 13.775 -14.897 11.386 -14 9 C-13.741 8.308 -13.481 7.616 -13.214 6.904 C-10.558 0.22 -6.785 -1.117 0 0 Z M53.072 58.447 C45.093 64.22 37.774 67.158 27.84 67.082 C26.617 67.075 25.395 67.069 24.136 67.062 C22.821 67.051 21.507 67.039 20.152 67.027 C18.776 67.02 17.399 67.014 16.023 67.009 C10.197 66.984 4.372 66.949 -1.453 66.904 C-5.025 66.877 -8.597 66.86 -12.169 66.849 C-14.167 66.84 -16.165 66.82 -18.163 66.799 C-32.617 66.76 -37.245 66.747 -44.125 70.875 C-47.764 74.999 -48.257 78.012 -48.188 83.5 C-48.181 84.624 -48.175 85.748 -48.168 86.906 C-48.028 89.478 -47.666 91.54 -47 94 C-46.724 94.001 -46.246 94.003 -45.324 94.007 C-31.871 94.066 -18.417 94.142 -4.963 94.236 C1.543 94.28 8.049 94.32 14.556 94.346 C20.832 94.372 27.108 94.413 33.385 94.463 C35.782 94.48 38.179 94.491 40.576 94.498 C43.928 94.507 47.28 94.535 50.632 94.568 C51.13 94.567 51.989 94.566 53.648 94.563 C54.563 94.576 55.477 94.588 56.419 94.601 C57.212 94.606 58.004 94.61 58.821 94.615 C61.566 95.1 62.958 96.134 65 98 C66.517 102.38 66.162 107.25 66.168 111.844 C66.17 112.267 66.173 112.998 66.178 114.41 C66.183 116.195 66.185 117.98 66.185 119.765 C66.187 122.491 66.206 125.216 66.225 127.941 C66.228 129.68 66.23 131.418 66.23 133.156 C66.238 133.968 66.245 134.779 66.252 135.616 C66.235 139.82 66.087 143.223 64 147 C61.645 148.177 60.211 148.137 57.585 148.158 C56.67 148.168 55.755 148.178 54.813 148.189 C53.82 148.196 52.827 148.203 51.805 148.211 C49.706 148.239 47.607 148.268 45.508 148.297 C42.197 148.338 38.886 148.375 35.574 148.401 C32.38 148.429 29.186 148.475 25.992 148.523 C25.012 148.527 24.031 148.53 23.021 148.533 C15.268 148.671 8.307 149.937 2.351 155.404 C-4.261 163.215 -6.756 174.69 -9.852 184.25 C-10.397 185.916 -10.943 187.582 -11.49 189.247 C-12.92 193.607 -14.339 197.971 -15.758 202.334 C-16.912 205.881 -18.073 209.425 -19.234 212.969 C-20.629 217.229 -22.022 221.489 -23.414 225.75 C-23.675 226.55 -23.937 227.349 -24.206 228.173 C-30.287 246.81 -33.346 256.185 -30.875 263.188 C-27.908 267.638 -24.741 269.516 -19.625 270.938 C-14.464 271.026 -10.3 270.206 -6.471 266.534 C-1.621 260.378 0.497 253.597 2.785 246.191 C3.211 244.856 3.639 243.522 4.069 242.187 C5.189 238.695 6.293 235.198 7.392 231.698 C9.149 226.102 10.925 220.511 12.716 214.925 C13.332 212.991 13.935 211.053 14.538 209.115 C18.04 198.125 22.14 187.304 32.754 181.492 C39.18 178.497 44.249 176.886 51.357 176.826 C52.001 176.82 53.114 176.808 55.261 176.786 C55.946 176.78 56.632 176.775 57.338 176.77 C59.491 176.754 61.643 176.731 63.795 176.705 C69.912 176.635 76.029 176.574 82.147 176.523 C85.893 176.491 89.639 176.45 93.384 176.403 C94.81 176.387 96.236 176.375 97.662 176.366 C99.655 176.354 101.649 176.329 103.643 176.303 C104.776 176.293 105.91 176.282 107.078 176.272 C109.978 176.002 111.605 175.62 114 174 C115.521 171.761 116.84 169.615 118.125 167.25 C118.472 166.642 118.819 166.033 119.176 165.406 C122.838 158.839 124.3 153.056 124.306 145.491 C124.311 145.075 124.318 144.355 124.332 142.966 C124.356 140.222 124.364 137.478 124.371 134.734 C124.38 132.816 124.389 130.898 124.398 128.98 C124.415 124.962 124.423 120.944 124.426 116.926 C124.431 111.797 124.469 106.669 124.514 101.541 C124.544 97.579 124.551 93.617 124.552 89.655 C124.556 87.765 124.569 85.876 124.59 83.986 C124.716 71.666 124.25 62.697 115.688 53.125 C107.02 45.151 96.807 43.602 85.391 43.82 C72.489 44.504 63.221 51.006 53.072 58.447 Z M-185 109 C-185 163.45 -185 217.9 -185 274 C-152.66 274 -120.32 274 -87 274 C-86.969 241.964 -86.96 232.913 -86.951 215.752 C-86.945 203.883 -86.938 192.013 -86.925 180.144 C-86.915 171.501 -86.908 162.858 -86.906 154.215 C-86.905 149.636 -86.902 145.057 -86.894 140.478 C-86.888 136.173 -86.885 131.868 -86.887 127.563 C-86.887 125.978 -86.885 124.393 -86.881 122.809 C-86.876 120.655 -86.877 118.501 -86.88 116.346 C-86.879 115.138 -86.878 113.929 -86.877 112.684 C-86.974 110.568 -87 110 -88 109 C-91.014 108.905 -94.004 108.874 -97.018 108.886 C-97.979 108.886 -98.941 108.886 -99.932 108.886 C-103.06 108.887 -106.188 108.894 -109.316 108.902 C-111.241 108.904 -113.167 108.905 -115.092 108.905 C-122.249 108.911 -129.406 108.925 -136.562 108.938 C-152.547 108.958 -168.531 108.979 -185 109 Z " fill="#000000" transform="translate(267,172)"/>
<path d="M0 0 C0.542 -0.005 1.479 -0.013 3.287 -0.029 C4.448 -0.033 5.61 -0.038 6.807 -0.042 C8.008 -0.048 9.21 -0.053 10.449 -0.059 C12.987 -0.069 15.526 -0.075 18.064 -0.079 C21.948 -0.089 25.832 -0.12 29.717 -0.151 C32.184 -0.158 34.652 -0.163 37.119 -0.167 C38.281 -0.179 39.442 -0.192 40.639 -0.204 C41.724 -0.201 42.808 -0.198 43.926 -0.195 C44.877 -0.199 45.828 -0.203 46.807 -0.206 C49.989 0.234 51.874 1.289 54.463 3.161 C55.988 6.211 55.699 8.803 55.463 12.161 C54.048 14.284 53.121 14.95 50.711 15.722 C48.016 16.248 45.495 16.296 42.748 16.306 C42.174 16.31 41.183 16.315 39.269 16.326 C38.034 16.327 36.798 16.328 35.525 16.329 C34.253 16.332 32.981 16.336 31.67 16.339 C28.98 16.344 26.29 16.347 23.601 16.346 C20.157 16.346 16.714 16.36 13.271 16.377 C9.981 16.391 6.691 16.39 3.4 16.392 C2.165 16.399 0.929 16.406 -0.344 16.413 C-1.491 16.41 -2.639 16.407 -3.822 16.404 C-4.327 16.405 -5.199 16.406 -6.881 16.408 C-9.619 16.153 -11.244 15.654 -13.537 14.161 C-15.132 10.97 -15.048 7.625 -14.537 4.161 C-10.84 -0.084 -5.299 0.038 0 0 Z " fill="#000000" transform="translate(82.537109375,214.8388671875)"/>
</svg>
