<?xml version="1.0" encoding="UTF-8"?>
<!-- Generator: visioncortex VTracer 0.6.12 -->
<svg version="1.1" xmlns="http://www.w3.org/2000/svg" width="528" height="526">
<path d="M0 0 C3.551 2.798 6.799 5.811 10 9 C10.577 9.554 11.155 10.109 11.75 10.68 C21.154 20.524 24.421 34.236 24.366 47.418 C24.041 61.186 18.501 72.603 9 82.375 C-2.861 93.639 -16.502 97.562 -32.574 97.273 C-46.561 96.667 -59.621 89.506 -69.035 79.359 C-78.227 68.322 -81.882 54.703 -81.379 40.441 C-79.699 25.183 -72.786 12.772 -61 3 C-43.017 -10.238 -19.081 -12.14 0 0 Z M-54 17 C-61.365 24.749 -65.701 33.883 -66.152 44.621 C-65.675 55.992 -62.361 64.214 -54 72 C-44.174 79.687 -34.479 82.906 -22 82 C-14.72 80.737 -9.499 77.846 -4 73 C-3.381 72.486 -2.762 71.971 -2.125 71.441 C4.381 65.594 8.536 57.088 9.203 48.336 C9.399 35.936 6.422 27.305 -2 18 C-17.584 4.442 -37.833 3.441 -54 17 Z " fill="#000000" transform="translate(393,66)"/>
<path d="M0 0 C13.856 9.448 21.885 22.013 25.48 38.344 C28.007 53.943 23.039 67.302 14.617 80.293 C6.146 91.401 -8.354 98.064 -21.848 99.984 C-37.918 101.258 -52.029 96.749 -64.305 86.324 C-75.317 75.835 -81.432 62.636 -82.216 47.355 C-82.446 31.747 -76.065 18.816 -65.535 7.562 C-47.81 -9.02 -20.991 -12.122 0 0 Z M-57.738 21.863 C-65.835 31.706 -67.2 41.994 -66.051 54.238 C-64.448 64.052 -57.584 71.516 -50.168 77.734 C-40.92 84.303 -31.064 85.012 -20.051 84.238 C-9.954 82.135 -2.266 76.569 3.824 68.363 C10.05 58.714 10.981 49.52 9.949 38.238 C7.478 28.367 1.269 19.099 -7.48 13.754 C-26.002 4.183 -43.4 6.969 -57.738 21.863 Z " fill="#000000" transform="translate(228.05078125,72.76171875)"/>
<path d="M0 0 C4.037 2.887 8.019 5.846 11.994 8.817 C16.854 12.443 21.742 15.986 26.812 19.312 C27.871 20.01 28.929 20.707 30.02 21.426 C33.266 23.14 35.326 23.935 39 24 C41.694 22.972 43.993 21.928 46.5 20.562 C47.197 20.2 47.894 19.837 48.612 19.464 C52.645 17.344 56.589 15.092 60.51 12.775 C71.67 6.2 82.604 1.589 95.695 4.625 C104.306 7.574 109.906 13.25 113.938 21.312 C117.285 29.528 118.039 37.213 115.07 45.652 C109.729 57.369 99.324 62.667 88.125 67.875 C87.026 68.393 85.927 68.911 84.795 69.445 C81.535 70.975 78.269 72.49 75 74 C74.091 74.422 73.182 74.844 72.246 75.279 C67.201 77.612 62.133 79.868 57 82 C56.089 82.38 55.177 82.761 54.238 83.152 C42.37 87.409 29.438 85.582 18 81 C16.656 80.355 15.318 79.697 14 79 C13.876 80.299 13.752 81.599 13.625 82.938 C13.274 86.189 12.736 89.268 11.938 92.438 C10.776 97.307 10.813 102.02 11 107 C11.58 107.284 12.16 107.567 12.758 107.859 C37.794 120.597 53.159 134.918 62.016 161.938 C63.103 165.289 64.177 168.644 65.25 172 C65.821 173.773 66.392 175.546 66.964 177.319 C68.106 180.865 69.246 184.412 70.383 187.959 C71.852 192.543 73.331 197.123 74.812 201.703 C75.625 204.219 76.438 206.734 77.25 209.25 C77.62 210.396 77.991 211.542 78.372 212.723 C78.708 213.768 79.044 214.814 79.391 215.891 C79.68 216.788 79.969 217.686 80.267 218.61 C83.035 227.631 82.816 236.268 79 245 C74.062 253.318 67.991 258.232 58.867 261.273 C51.427 263.159 43.818 262.664 37 259 C25.713 250.687 21.447 241.388 17.277 228.305 C16.847 226.985 16.415 225.665 15.982 224.346 C14.622 220.193 13.279 216.034 11.938 211.875 C10.377 207.043 8.81 202.214 7.228 197.389 C6.603 195.469 5.988 193.546 5.374 191.623 C0.71 177.349 0.71 177.349 -5.75 173.125 C-6.822 172.424 -7.895 171.722 -9 171 C-9.266 171.68 -9.533 172.36 -9.807 173.06 C-11.044 176.192 -12.303 179.315 -13.562 182.438 C-13.981 183.507 -14.399 184.576 -14.83 185.678 C-17.682 192.689 -21.012 198.311 -26 204 C-26.529 204.614 -27.058 205.228 -27.602 205.86 C-34.276 213.391 -45.99 221.547 -55.5 224.875 C-58.837 225.042 -60.366 223.976 -63 222 C-64.639 218.722 -64.543 216.622 -64 213 C-61.711 210.461 -58.885 208.801 -56 207 C-38.465 195.771 -30.503 183.539 -24 164 C-24 163.34 -24 162.68 -24 162 C-26.14 160.428 -26.14 160.428 -29.109 158.594 C-30.174 157.932 -31.239 157.271 -32.336 156.59 C-33.474 155.893 -34.612 155.197 -35.75 154.5 C-36.861 153.81 -37.972 153.121 -39.117 152.41 C-48.063 146.881 -48.063 146.881 -52 145 C-52.099 145.663 -52.199 146.325 -52.301 147.008 C-55.643 161.312 -62.424 171.055 -74.711 178.806 C-78.755 181.298 -82.866 183.661 -87 186 C-86.408 196.079 -84.271 205.692 -82.084 215.525 C-79.563 227.205 -78.949 236.348 -84.688 247.188 C-91.077 254.958 -97.996 259.987 -108.105 261.449 C-117.656 261.963 -125.179 259.213 -132.387 252.914 C-139.139 245.799 -142.19 237.581 -144.184 228.109 C-144.364 227.29 -144.545 226.471 -144.731 225.626 C-145.112 223.892 -145.49 222.157 -145.863 220.421 C-146.443 217.724 -147.036 215.03 -147.634 212.337 C-149.05 205.939 -150.452 199.538 -151.835 193.132 C-152.481 190.148 -153.144 187.167 -153.812 184.188 C-153.983 183.367 -154.153 182.546 -154.328 181.7 C-155.082 178.379 -155.619 176.359 -158.137 173.988 C-158.752 173.662 -159.366 173.336 -160 173 C-160.273 173.724 -160.546 174.447 -160.828 175.193 C-171.945 201.813 -193.145 224.712 -215 243 C-216.018 243.892 -217.035 244.785 -218.051 245.68 C-224.022 250.897 -229.751 255.629 -237 259 C-237.804 259.413 -238.609 259.825 -239.438 260.25 C-247.525 262.617 -255.341 262.566 -263.059 259.066 C-270.997 254.594 -276.585 248.241 -279.562 239.625 C-281.716 231.422 -281.671 223.521 -277.406 216.012 C-270.3 205.846 -260.271 196.383 -250.812 188.375 C-240.717 179.632 -234.42 169.521 -228 158 C-227.17 156.531 -226.34 155.062 -225.508 153.594 C-223.662 150.331 -221.82 147.067 -220.018 143.78 C-219.322 142.563 -218.583 141.37 -217.811 140.201 C-215.893 137.225 -214.956 135.507 -215.266 131.93 C-215.59 130.922 -215.915 129.914 -216.25 128.875 C-220.1 116.724 -217.646 103.173 -216.5 90.688 C-216.355 89.061 -216.21 87.434 -216.066 85.807 C-215.717 81.871 -215.36 77.935 -215 74 C-215.47 74.673 -215.94 75.347 -216.424 76.04 C-217.046 76.931 -217.668 77.821 -218.309 78.738 C-218.616 79.178 -218.616 79.178 -220.17 81.404 C-226.815 90.83 -234.362 96.577 -245.59 99.727 C-254.004 100.998 -261.185 98.605 -267.992 93.695 C-274.333 88.342 -277.404 81.315 -278.32 73.145 C-279.115 52.665 -262.603 32.783 -249.508 18.23 C-236.883 5.115 -220.646 -4.789 -202.062 -5.375 C-184.483 -4.804 -170.702 3.232 -157.031 13.49 C-154.716 15.211 -152.377 16.895 -150.035 18.578 C-148.315 19.823 -146.595 21.067 -144.875 22.312 C-144.466 22.606 -144.466 22.606 -142.396 24.09 C-136.916 28.094 -131.898 31.91 -130.247 38.853 C-128.746 51.899 -132.912 66.427 -135.064 79.236 C-135.55 82.141 -136.027 85.047 -136.504 87.953 C-136.654 88.828 -136.804 89.704 -136.958 90.605 C-139.26 104.695 -139.26 104.695 -136.75 109.288 C-136.173 109.824 -135.595 110.361 -135 110.914 C-134.359 111.53 -133.719 112.146 -133.059 112.781 C-132.379 113.39 -131.7 113.998 -131 114.625 C-130.352 115.241 -129.703 115.857 -129.035 116.492 C-125.781 119.56 -122.427 122.505 -119.047 125.434 C-114.628 129.282 -110.42 133.323 -106.25 137.438 C-105.509 138.15 -104.768 138.862 -104.004 139.596 C-97.114 146.406 -93.943 152.518 -92.25 162 C-92.125 162.679 -92 163.359 -91.871 164.059 C-91.57 165.704 -91.283 167.352 -91 169 C-80.756 165.136 -75.281 160.124 -70.723 150.125 C-69.431 147.074 -68.183 144.006 -66.934 140.938 C-66.581 140.078 -66.228 139.219 -65.864 138.333 C-65.173 136.636 -64.498 134.932 -63.839 133.222 C-63.683 132.832 -63.683 132.832 -62.895 130.859 C-62.625 130.163 -62.355 129.467 -62.077 128.749 C-60.696 126.506 -59.449 125.899 -57 125 C-51.419 125.166 -47.562 127.772 -43 130.688 C-42.226 131.171 -41.452 131.654 -40.655 132.152 C-38.095 133.756 -35.546 135.375 -33 137 C-32.105 137.571 -31.21 138.141 -30.289 138.729 C-29.377 139.311 -28.466 139.893 -27.527 140.492 C-26.607 141.08 -25.687 141.667 -24.739 142.272 C-22.869 143.467 -21.002 144.664 -19.136 145.865 C-14.104 149.087 -9.03 152.16 -3.816 155.079 C18.304 167.536 21.966 190.586 29.192 213.436 C30.227 216.701 31.273 219.962 32.32 223.223 C32.631 224.216 32.941 225.21 33.261 226.234 C34.946 231.459 36.792 235.556 40 240 C40 240.66 40 241.32 40 242 C47.104 245.825 51.992 246.335 59.812 244.25 C62 243 62 243 63.188 241 C63.456 240.01 63.724 239.02 64 238 C64.242 237.355 64.485 236.711 64.734 236.047 C66.46 230.41 65.727 226.003 63.973 220.492 C63.748 219.76 63.524 219.028 63.293 218.273 C62.542 215.844 61.774 213.422 61 211 C60.732 210.156 60.463 209.312 60.186 208.442 C58.156 202.076 56.081 195.725 54 189.375 C53.39 187.508 52.781 185.641 52.172 183.773 C50.72 179.325 49.261 174.88 47.798 170.435 C47.043 168.132 46.296 165.827 45.55 163.521 C45.114 162.184 44.678 160.848 44.242 159.512 C43.875 158.377 43.507 157.242 43.128 156.073 C38.589 143.711 30.452 137.643 19.562 131 C-1.159 118.299 -1.159 118.299 -5.438 108.812 C-6.93 98.7 -4.266 88.359 -2.125 78.5 C-1.997 77.876 -1.997 77.876 -1.348 74.719 C-1.091 73.522 -0.835 72.326 -0.57 71.094 C-0.341 70.018 -0.112 68.942 0.125 67.834 C1.022 64.928 1.915 63.198 4 61 C10.439 58.93 14.829 61.167 20.625 63.875 C22.282 64.627 23.941 65.374 25.602 66.117 C26.327 66.453 27.052 66.79 27.799 67.136 C37.706 71.025 46.548 68.899 56 65 C61.052 62.787 66.043 60.444 71.027 58.082 C73.322 56.995 75.623 55.919 77.924 54.844 C79.404 54.146 80.884 53.449 82.363 52.75 C83.042 52.433 83.72 52.116 84.419 51.79 C90.927 48.69 96.707 45.712 100 39 C100.822 34.403 100.497 30.342 98.438 26.125 C95.476 22.329 93.649 21.219 89 20 C78.027 19.477 67.701 26.763 58.546 32.221 C50.911 36.753 41.87 42.109 32.625 40.812 C21.366 37.25 11.579 29.05 2.424 21.89 C-11.552 11.041 -26.577 0.484 -45 2 C-62.057 4.843 -82.477 16.559 -93.438 29.938 C-97.769 36.208 -100.121 43.351 -99 51 C-97.238 59.825 -93.392 67.792 -89.562 75.875 C-89.096 76.862 -88.63 77.849 -88.149 78.865 C-80.555 94.524 -80.555 94.524 -74 97 C-68.982 97.674 -65.175 97.556 -60.562 95.375 C-56.649 91.748 -55.212 88.828 -54.598 83.527 C-54.688 77.531 -57.654 72.552 -60.312 67.312 C-60.812 66.293 -61.312 65.274 -61.826 64.225 C-65.48 56.826 -65.48 56.826 -67.641 53.395 C-69.531 50.063 -69.479 47.766 -69 44 C-64.737 38.595 -58.472 37.411 -52 36 C-48.318 35.731 -45.938 36.238 -43 38.625 C-41.544 42.084 -42.087 44.413 -43 48 C-44.895 50.585 -45.888 50.963 -49 52 C-47.313 57.476 -44.963 62.468 -42.479 67.609 C-38.547 75.856 -37.28 84.744 -39.754 93.742 C-43.61 102.724 -49.715 108.489 -58.797 112.117 C-67.034 114.58 -75.529 114.79 -83.352 110.801 C-85.428 109.338 -87.193 107.783 -89 106 C-89.58 105.469 -90.16 104.938 -90.758 104.391 C-96.968 98.096 -100.335 89.915 -104 82 C-104.396 81.156 -104.791 80.313 -105.199 79.443 C-106.436 76.801 -107.658 74.152 -108.875 71.5 C-109.066 71.088 -109.066 71.088 -110.031 69.003 C-115.272 57.38 -117.174 45.233 -113.5 32.75 C-107.508 17.109 -94.978 8.019 -80.967 0.111 C-79.679 -0.617 -78.394 -1.352 -77.115 -2.096 C-50.236 -17.706 -26.068 -17.971 0 0 Z M-238 29 C-238.708 29.697 -239.415 30.395 -240.145 31.113 C-246.395 37.669 -251.07 45.424 -255.817 53.094 C-256.786 54.656 -257.779 56.203 -258.777 57.746 C-261.952 62.908 -263.516 67.883 -263 74 C-261.786 77.784 -259.772 80.335 -256.75 82.938 C-251.432 84.992 -247.55 84.653 -242.438 82.5 C-231.552 75.349 -224.11 61.359 -217.145 50.633 C-216.698 49.947 -216.251 49.261 -215.79 48.555 C-214.95 47.258 -214.119 45.955 -213.298 44.646 C-211.245 41.468 -209.707 39.141 -206 38 C-203.206 38.204 -201.57 38.553 -199.357 40.289 C-197.638 42.456 -197.688 43.453 -197.851 46.185 C-197.873 46.609 -197.873 46.609 -197.984 48.753 C-198.048 49.677 -198.113 50.6 -198.18 51.551 C-198.236 52.521 -198.292 53.491 -198.351 54.491 C-199.147 67.539 -200.287 80.567 -201.421 93.589 C-201.709 96.906 -201.984 100.225 -202.258 103.543 C-202.347 104.533 -202.437 105.523 -202.529 106.542 C-203.255 115.497 -203.717 125.062 -199 133 C-196.797 134.86 -194.869 136.28 -192.438 137.75 C-192.112 137.955 -192.112 137.955 -190.464 138.992 C-189.06 139.872 -187.65 140.745 -186.237 141.61 C-183.903 143.06 -181.614 144.567 -179.324 146.086 C-177.759 147.1 -176.192 148.113 -174.625 149.125 C-173.901 149.611 -173.177 150.096 -172.431 150.597 C-167.687 153.583 -164.539 154.304 -158.964 153.983 C-156.084 154.008 -154.807 155.059 -152.812 157.062 C-152.164 157.711 -151.516 158.359 -150.848 159.027 C-150.543 159.353 -150.543 159.353 -149 161 C-148.721 161.258 -148.721 161.258 -147.309 162.566 C-136.62 173.255 -135.732 195.636 -132.782 209.748 C-132.083 213.08 -131.37 216.409 -130.656 219.738 C-130.449 220.75 -130.241 221.762 -130.028 222.804 C-128.457 230.077 -126.545 237.614 -120.438 242.438 C-120.148 242.674 -120.148 242.674 -118.684 243.871 C-114.922 246.393 -111.392 246.366 -107 246 C-102.257 244.356 -98.892 241.669 -96.65 237.062 C-93.464 226.952 -97.621 214.82 -99.75 204.812 C-100.496 201.238 -101.234 197.662 -101.969 194.086 C-102.059 193.649 -102.059 193.649 -102.515 191.439 C-104.163 183.374 -105.527 175.277 -106.632 167.118 C-107.789 159.309 -110.473 154.07 -116.25 148.5 C-116.603 148.155 -116.603 148.155 -118.391 146.406 C-120.403 144.55 -122.44 142.766 -124.52 140.988 C-129.851 136.346 -134.816 131.334 -139.802 126.328 C-141.455 124.67 -143.113 123.017 -144.771 121.365 C-145.826 120.31 -146.88 119.255 -147.934 118.199 C-148.428 117.707 -148.923 117.214 -149.433 116.706 C-152.826 113.289 -153.953 112.052 -154.172 107.121 C-154.103 101.345 -153.187 95.752 -152.25 90.062 C-152.161 89.502 -152.161 89.502 -151.712 86.668 C-150.958 81.911 -150.187 77.156 -149.418 72.401 C-148.856 68.914 -148.303 65.426 -147.75 61.938 C-147.663 61.406 -147.663 61.406 -147.22 58.717 C-144.733 43.013 -144.733 43.013 -147.275 38.975 C-147.574 38.765 -147.574 38.765 -149.086 37.699 C-149.76 37.203 -150.435 36.707 -151.13 36.195 C-151.5 35.947 -151.5 35.947 -153.375 34.688 C-154.137 34.145 -154.898 33.602 -155.683 33.043 C-157.29 31.907 -158.909 30.785 -160.536 29.677 C-162.94 28.041 -165.311 26.363 -167.68 24.676 C-193.376 6.643 -215.285 6.026 -238 29 Z M-204 148 C-209.059 155.999 -213.811 164.097 -218.234 172.466 C-223.158 181.568 -229.678 188.978 -237.051 196.176 C-237.791 196.908 -238.531 197.641 -239.293 198.395 C-241.628 200.706 -243.969 203.01 -246.312 205.312 C-249.419 208.365 -252.518 211.425 -255.613 214.488 C-255.969 214.836 -255.969 214.836 -257.769 216.594 C-258.427 217.245 -259.085 217.897 -259.763 218.568 C-260.341 219.136 -260.92 219.704 -261.516 220.289 C-265.122 224.447 -265.442 228.189 -265.309 233.531 C-264.84 237.283 -263.555 239.248 -261 242 C-256.492 245.359 -252.957 246.759 -247.305 246.426 C-238.598 244.817 -232.451 238.029 -226.309 232.133 C-223.994 229.913 -221.624 227.782 -219.199 225.684 C-204.385 212.784 -192.319 199.466 -182.431 182.453 C-180.738 179.551 -178.975 176.698 -177.198 173.847 C-175.782 171.575 -174.39 169.288 -173 167 C-175.433 165.378 -177.877 163.854 -180.387 162.355 C-181.243 161.843 -182.1 161.331 -182.982 160.803 C-184.766 159.738 -186.55 158.672 -188.334 157.607 C-193.593 154.461 -198.814 151.266 -204 148 Z " fill="#000000" transform="translate(347,178)"/>
</svg>
