<?xml version="1.0" encoding="UTF-8"?>
<!-- Generator: visioncortex VTracer 0.6.12 -->
<svg version="1.1" xmlns="http://www.w3.org/2000/svg" width="550" height="544">
<path d="M0 0 C1.234 -0.004 2.468 -0.008 3.74 -0.012 C5.117 -0.011 6.494 -0.01 7.871 -0.009 C9.328 -0.012 10.785 -0.015 12.242 -0.018 C16.256 -0.026 20.27 -0.028 24.284 -0.029 C28.609 -0.03 32.934 -0.038 37.26 -0.045 C46.723 -0.058 56.185 -0.064 65.648 -0.069 C71.556 -0.072 77.463 -0.076 83.37 -0.08 C99.722 -0.092 116.073 -0.103 132.424 -0.106 C133.471 -0.106 134.518 -0.107 135.597 -0.107 C136.646 -0.107 137.696 -0.107 138.777 -0.107 C140.903 -0.108 143.03 -0.108 145.157 -0.109 C145.684 -0.109 145.684 -0.109 148.353 -0.109 C165.445 -0.113 182.537 -0.131 199.629 -0.154 C217.171 -0.178 234.714 -0.19 252.256 -0.192 C262.108 -0.192 271.96 -0.198 281.811 -0.216 C290.201 -0.232 298.59 -0.237 306.979 -0.229 C311.26 -0.225 315.54 -0.226 319.82 -0.24 C323.741 -0.252 327.661 -0.251 331.581 -0.239 C332.997 -0.237 334.414 -0.24 335.831 -0.249 C347.199 -0.314 354.645 0.913 363.14 8.881 C370.487 17.212 370.273 27.462 370.258 37.985 C370.261 39.188 370.263 40.39 370.265 41.63 C370.27 44.96 370.271 48.291 370.27 51.621 C370.27 55.217 370.275 58.812 370.28 62.407 C370.288 69.448 370.291 76.489 370.292 83.53 C370.292 89.255 370.294 94.98 370.297 100.705 C370.306 116.943 370.311 133.182 370.31 149.42 C370.31 149.858 370.31 149.858 370.31 152.072 C370.31 152.949 370.31 153.825 370.31 154.728 C370.309 168.924 370.319 183.121 370.333 197.317 C370.347 211.901 370.354 226.486 370.354 241.07 C370.353 249.255 370.356 257.44 370.367 265.625 C370.376 272.594 370.378 279.564 370.371 286.534 C370.368 290.087 370.368 293.641 370.377 297.194 C370.386 301.053 370.38 304.911 370.372 308.77 C370.377 309.885 370.382 310.999 370.387 312.148 C370.336 323.755 368.923 333.094 360.937 341.819 C354.508 347.985 346.602 350.289 337.875 350.194 C336.797 350.185 335.719 350.176 334.609 350.167 C334.199 350.161 334.199 350.161 332.125 350.131 C332.135 350.621 332.135 350.621 332.188 353.097 C332.261 356.735 332.306 360.373 332.344 364.011 C332.364 365.584 332.392 367.157 332.426 368.731 C332.475 370.995 332.498 373.258 332.515 375.522 C332.536 376.223 332.557 376.924 332.578 377.647 C332.579 381.083 332.376 382.812 330.221 385.548 C328.009 387.219 326.896 388.047 324.125 388.131 C320.679 386.491 319.268 385.346 317.125 382.131 C317.125 371.571 317.125 361.011 317.125 350.131 C221.095 350.131 125.065 350.131 26.125 350.131 C26.125 361.351 26.125 372.571 26.125 384.131 C21.125 388.131 21.125 388.131 18.062 388.694 C15.125 388.131 15.125 388.131 12.965 386.078 C10.694 382.442 10.611 379.572 10.734 375.424 C10.74 374.699 10.745 373.974 10.751 373.226 C10.773 370.923 10.824 368.622 10.875 366.319 C10.895 364.752 10.913 363.185 10.929 361.618 C10.973 357.788 11.042 353.96 11.125 350.131 C10.654 350.141 10.654 350.141 8.273 350.191 C7.028 350.206 5.783 350.221 4.5 350.237 C3.885 350.247 3.885 350.247 0.773 350.296 C-7.197 349.936 -14.399 346.99 -19.875 341.131 C-27.553 330.92 -28.179 320.207 -28.136 307.766 C-28.14 306.569 -28.144 305.371 -28.148 304.137 C-28.156 300.845 -28.156 297.552 -28.151 294.26 C-28.149 290.696 -28.158 287.133 -28.165 283.57 C-28.178 276.602 -28.18 269.634 -28.178 262.665 C-28.176 256.999 -28.178 251.332 -28.182 245.666 C-28.183 244.857 -28.183 244.049 -28.184 243.217 C-28.185 241.574 -28.186 239.932 -28.187 238.29 C-28.198 222.91 -28.196 207.53 -28.19 192.151 C-28.185 178.098 -28.196 164.045 -28.215 149.993 C-28.234 135.542 -28.243 121.091 -28.239 106.64 C-28.237 98.535 -28.239 90.431 -28.254 82.326 C-28.266 75.428 -28.267 68.53 -28.255 61.631 C-28.249 58.116 -28.248 54.6 -28.26 51.085 C-28.27 47.264 -28.262 43.444 -28.25 39.624 C-28.257 38.526 -28.264 37.429 -28.272 36.298 C-28.205 26.628 -27.139 16.565 -20.758 8.885 C-14.762 3.299 -8.175 0.01 0 0 Z M-9.625 20.131 C-11.535 23.187 -12 25.691 -11.996 29.213 C-11.997 30.04 -11.998 30.867 -12 31.719 C-11.996 32.626 -11.993 33.533 -11.989 34.468 C-11.989 35.44 -11.989 36.412 -11.989 37.413 C-11.988 40.563 -11.981 43.712 -11.973 46.862 C-11.972 48.805 -11.971 50.748 -11.97 52.691 C-11.965 59.9 -11.951 67.109 -11.938 74.319 C-11.917 90.427 -11.897 106.535 -11.875 123.131 C46.535 123.131 104.945 123.131 165.125 123.131 C165.125 87.491 165.125 51.851 165.125 15.131 C123.196 15.011 123.196 15.011 105.65 14.985 C93.526 14.967 81.403 14.946 69.279 14.905 C60.45 14.875 51.622 14.856 42.793 14.849 C38.117 14.845 33.442 14.836 28.766 14.814 C24.366 14.794 19.966 14.788 15.566 14.792 C13.95 14.791 12.335 14.785 10.72 14.774 C8.514 14.759 6.309 14.762 4.104 14.771 C2.87 14.768 1.635 14.765 0.364 14.762 C-4.077 15.268 -6.703 16.792 -9.625 20.131 Z M180.125 15.131 C180.125 50.771 180.125 86.411 180.125 123.131 C237.545 123.131 294.965 123.131 354.125 123.131 C354.228 106.755 354.331 90.379 354.437 73.506 C354.483 68.34 354.528 63.174 354.575 57.852 C354.598 51.531 354.598 51.531 354.602 48.57 C354.61 46.507 354.627 44.444 354.653 42.381 C354.689 39.251 354.694 36.122 354.692 32.992 C354.71 32.077 354.728 31.162 354.747 30.219 C354.713 26.016 354.518 23.038 351.902 19.64 C347.249 15.437 343.475 14.881 337.297 14.891 C336.623 14.889 335.949 14.888 335.255 14.886 C333.004 14.882 330.753 14.893 328.502 14.904 C326.886 14.905 325.269 14.905 323.653 14.903 C319.269 14.903 314.885 14.915 310.501 14.929 C305.918 14.941 301.335 14.942 296.752 14.945 C288.075 14.951 279.399 14.967 270.722 14.987 C258.996 15.014 247.269 15.025 235.543 15.036 C217.07 15.055 198.597 15.095 180.125 15.131 Z M-11.875 138.131 C-11.875 173.111 -11.875 208.091 -11.875 244.131 C108.905 244.131 229.685 244.131 354.125 244.131 C354.125 209.151 354.125 174.171 354.125 138.131 C233.345 138.131 112.565 138.131 -11.875 138.131 Z M-11.875 259.131 C-11.875 325.131 -11.875 325.131 -7.875 331.131 C-1.78 336.455 6.417 335.691 14.016 335.639 C15.428 335.644 16.84 335.65 18.252 335.658 C22.118 335.675 25.984 335.667 29.85 335.654 C34.024 335.645 38.199 335.659 42.373 335.67 C50.546 335.688 58.718 335.684 66.891 335.673 C73.533 335.664 80.176 335.662 86.818 335.667 C87.291 335.667 87.291 335.667 89.684 335.669 C91.606 335.67 93.527 335.671 95.449 335.672 C113.461 335.684 131.474 335.671 149.486 335.649 C164.938 335.631 180.39 335.634 195.842 335.653 C213.791 335.674 231.739 335.683 249.688 335.67 C251.602 335.669 253.517 335.668 255.431 335.667 C255.902 335.666 255.902 335.666 258.285 335.665 C264.919 335.661 271.553 335.667 278.186 335.677 C286.272 335.688 294.357 335.685 302.443 335.663 C306.567 335.653 310.692 335.649 314.816 335.662 C318.594 335.674 322.371 335.667 326.149 335.646 C328.158 335.64 330.168 335.653 332.178 335.666 C345.384 335.552 345.384 335.552 350.125 331.131 C362.05 310.261 354.125 283.168 354.125 259.131 C233.345 259.131 112.565 259.131 -11.875 259.131 Z " fill="#000000" transform="translate(113.87534618377686,72.86857223510742)"/>
<path d="M0 0 C0.716 -0.001 1.432 -0.002 2.169 -0.003 C3.687 -0.004 5.205 -0.002 6.723 0.002 C8.996 0.008 11.27 0.003 13.543 -0.004 C17.918 -0.008 22.29 0.042 26.664 0.133 C27.006 0.139 27.006 0.139 28.736 0.173 C30.664 0.222 32.59 0.305 34.516 0.391 C35.61 0.436 36.703 0.481 37.831 0.528 C41.298 1.268 42.545 2.326 44.664 5.133 C45.395 11.088 45.395 11.088 43.352 14.008 C40.311 16.035 37.633 16.264 34.088 16.294 C33.164 16.304 32.239 16.313 31.287 16.323 C30.29 16.327 29.293 16.332 28.266 16.336 C27.239 16.342 26.211 16.347 25.153 16.353 C22.979 16.363 20.806 16.369 18.632 16.373 C15.309 16.383 11.987 16.414 8.664 16.445 C6.552 16.452 4.44 16.457 2.328 16.461 C1.335 16.473 0.342 16.486 -0.681 16.498 C-9.392 16.47 -9.392 16.47 -13.336 13.133 C-14.861 10.083 -14.572 7.49 -14.336 4.133 C-12.953 2.058 -12.025 1.367 -9.685 0.571 C-6.436 -0.035 -3.304 0.003 0 0 Z " fill="#000000" transform="translate(176.3359375,133.8671875)"/>
<path d="M0 0 C0.956 -0.003 1.913 -0.007 2.898 -0.01 C4.912 -0.015 6.927 -0.017 8.942 -0.017 C12.02 -0.02 15.099 -0.038 18.178 -0.057 C20.139 -0.06 22.101 -0.062 24.062 -0.062 C24.98 -0.07 25.898 -0.077 26.844 -0.084 C35.164 -0.055 35.164 -0.055 38.965 2.168 C41.428 5.863 41.355 7.801 40.965 12.168 C39.134 14.784 38.055 15.138 34.965 16.168 C33.35 16.28 31.732 16.337 30.114 16.361 C29.129 16.377 28.144 16.393 27.13 16.41 C22.637 16.454 18.144 16.495 13.651 16.518 C11.28 16.535 8.91 16.562 6.54 16.6 C3.121 16.655 -0.296 16.677 -3.715 16.691 C-4.773 16.714 -5.832 16.737 -6.922 16.76 C-14.261 16.739 -14.261 16.739 -18.208 13.827 C-20.035 11.168 -20.035 11.168 -20.598 8.105 C-19.899 4.455 -19.053 3.312 -16.035 1.168 C-10.731 -0.084 -5.417 0.007 0 0 Z " fill="#000000" transform="translate(367.03515625,133.83203125)"/>
<path d="M0 0 C0.343 -0.002 0.343 -0.002 2.076 -0.015 C4.335 -0.03 6.594 -0.036 8.854 -0.042 C10.428 -0.048 12.002 -0.054 13.576 -0.059 C16.874 -0.07 20.172 -0.076 23.469 -0.079 C27.69 -0.085 31.911 -0.109 36.133 -0.137 C39.383 -0.156 42.634 -0.161 45.884 -0.162 C47.44 -0.165 48.996 -0.173 50.552 -0.187 C52.73 -0.204 54.908 -0.202 57.086 -0.195 C58.324 -0.199 59.562 -0.203 60.838 -0.206 C64.392 0.193 66.272 1.021 69.108 3.161 C70.528 6.002 70.422 8.016 70.108 11.161 C68.492 13.615 67.148 14.934 64.225 15.573 C61.618 15.802 59.037 15.874 56.42 15.911 C55.903 15.925 55.903 15.925 53.288 15.992 C50.049 16.061 46.811 16.104 43.572 16.136 C40.785 16.164 37.999 16.202 35.213 16.239 C29.714 16.309 24.216 16.356 18.717 16.389 C16.48 16.404 14.242 16.423 12.004 16.446 C8.814 16.476 5.625 16.485 2.436 16.489 C1.952 16.495 1.952 16.495 -0.494 16.526 C-5.416 16.51 -8.944 16.466 -12.892 13.161 C-14.297 10.352 -14.141 8.273 -13.892 5.161 C-12.601 2.773 -11.803 1.484 -9.214 0.566 C-6.121 0.027 -3.14 0.017 0 0 Z " fill="#000000" transform="translate(256.892333984375,257.8388671875)"/>
</svg>
