<?xml version="1.0" encoding="UTF-8"?>
<!-- Generator: visioncortex VTracer 0.6.12 -->
<svg version="1.1" xmlns="http://www.w3.org/2000/svg" width="546" height="548">
<path d="M0 0 C2.443 4.076 3.372 7.022 3.25 11.75 C3.224 12.944 3.198 14.137 3.172 15.367 C3.116 16.912 3.059 18.456 3 20 C2.963 21.052 2.927 22.104 2.889 23.188 C2.622 30.794 2.322 38.397 2 46 C3.226 46.12 4.452 46.24 5.715 46.363 C13.579 47.355 20.691 52.208 26 58 C34.937 69.755 35.66 83.812 37 98 C37.851 98.246 38.702 98.492 39.578 98.746 C43.291 100.107 46.459 101.913 49.75 104.062 C50.362 104.46 50.974 104.858 51.604 105.268 C57.232 109.011 62.159 113.287 67 118 C67.831 118.77 68.663 119.539 69.52 120.332 C85.672 135.691 99.147 159.586 100.098 182.336 C100.065 184.224 100.033 186.112 100 188 C101.025 187.965 102.05 187.93 103.105 187.895 C104.466 187.866 105.827 187.839 107.188 187.812 C107.861 187.787 108.535 187.762 109.229 187.736 C113.698 187.671 116.456 188.244 120 191 C121.525 194.05 121.236 196.642 121 200 C118 203 118 203 108 204 C108 225.45 108 246.9 108 269 C126.688 268.812 126.688 268.812 132.561 268.73 C134.107 268.721 135.653 268.713 137.199 268.707 C137.994 268.692 138.789 268.676 139.608 268.661 C144.236 268.658 147.238 268.996 151 272 C152.42 274.841 152.315 276.855 152 280 C149.761 283.314 148.361 283.918 144.438 284.812 C141 285 141 285 138 284 C138 315.35 138 346.7 138 379 C143.61 379.33 149.22 379.66 155 380 C159 386 159 386 159.062 389.188 C157.685 392.833 156.505 393.375 153 395 C150.424 395.268 148.102 395.376 145.533 395.333 C144.788 395.332 144.044 395.332 143.277 395.332 C140.783 395.327 138.29 395.301 135.796 395.275 C134.003 395.268 132.21 395.263 130.417 395.258 C126.539 395.246 122.662 395.225 118.784 395.198 C112.545 395.153 106.305 395.13 100.066 395.112 C99.003 395.109 97.941 395.106 96.847 395.103 C94.671 395.097 92.496 395.09 90.321 395.084 C86.979 395.074 83.637 395.062 80.294 395.05 C57.44 394.97 34.587 395.072 11.733 395.201 C6.365 395.231 0.998 395.259 -4.37 395.287 C-14.051 395.338 -23.733 395.391 -33.414 395.445 C-50.965 395.544 -68.516 395.637 -86.068 395.731 C-91.187 395.758 -96.306 395.786 -101.425 395.815 C-102.394 395.82 -103.363 395.826 -104.361 395.831 C-106.273 395.842 -108.185 395.853 -110.097 395.864 C-114.6 395.889 -119.104 395.912 -123.607 395.929 C-125.288 395.936 -126.968 395.943 -128.648 395.949 C-129.451 395.953 -130.254 395.956 -131.081 395.959 C-136.134 395.982 -141.185 396.041 -146.237 396.119 C-146.847 396.126 -146.847 396.126 -149.934 396.161 C-152.119 396.187 -154.303 396.224 -156.487 396.275 C-161.475 396.32 -164.99 396.351 -169 393 C-170.78 390.572 -171.033 389.45 -170.812 386.438 C-169.923 383.77 -169.245 382.663 -167 381 C-163 380 -163 380 -148 380 C-148 348.65 -148 317.3 -148 285 C-150.64 285 -153.28 285 -156 285 C-158.655 284.162 -159.618 283.491 -161.312 281.312 C-162.365 277.771 -162.088 275.521 -161 272 C-155.793 269.099 -151.539 268.582 -145.66 268.707 C-144.979 268.71 -144.298 268.713 -143.597 268.716 C-141.085 268.732 -138.574 268.774 -136.062 268.812 C-130.432 268.874 -124.801 268.936 -119 269 C-118.67 247.55 -118.34 226.1 -118 204 C-120.97 204 -123.94 204 -127 204 C-130.542 201.542 -131.782 200.187 -132.562 195.938 C-132 193 -132 193 -130.625 190.688 C-124.964 187.048 -117.513 187.968 -111 188 C-110.853 186.909 -110.706 185.819 -110.555 184.695 C-106.156 154.262 -92.156 128.509 -67.49 109.627 C-62.154 105.642 -57.418 102.662 -51.125 100.312 C-48.199 98.965 -48.199 98.965 -46 97 C-44.843 92.273 -44.923 87.84 -45.025 83.002 C-44.897 72.689 -40.188 63.18 -33.312 55.75 C-27.368 50.12 -21.02 47.25 -13 46 C-13.021 44.754 -13.042 43.508 -13.063 42.224 C-13.136 37.593 -13.182 32.962 -13.22 28.33 C-13.24 26.327 -13.267 24.324 -13.302 22.322 C-13.35 19.439 -13.373 16.558 -13.391 13.676 C-13.411 12.783 -13.432 11.89 -13.453 10.97 C-13.455 6.774 -13.367 4.588 -11.097 0.954 C-7.282 -2.601 -4.506 -2.657 0 0 Z M-24 68 C-28.912 74.772 -30.432 83.784 -30 92 C-29.459 91.929 -28.917 91.859 -28.36 91.786 C-21.073 90.938 -13.822 90.847 -6.495 90.87 C-4.438 90.875 -2.38 90.87 -0.322 90.863 C6.524 90.86 13.213 91.055 20 92 C20.407 83.327 19.842 75.247 14.375 68.125 C8.985 62.496 2.038 60.432 -5.59 59.973 C-13.082 60.058 -18.689 62.689 -24 68 Z M-69 132 C-69.838 132.838 -70.676 133.676 -71.539 134.539 C-85.002 148.743 -95 169.069 -95 189 C-35.6 189 23.8 189 85 189 C82.794 162.525 72.134 142.103 52.125 124.625 C15.068 95.345 -35.955 98.78 -69 132 Z M-103 204 C-103 225.78 -103 247.56 -103 270 C-90.46 269.67 -77.92 269.34 -65 269 C-64.75 252.25 -64.75 252.25 -64.702 246.981 C-64.673 245.597 -64.642 244.213 -64.609 242.828 C-64.608 242.114 -64.607 241.401 -64.606 240.666 C-64.507 237.235 -64.237 235.316 -62.153 232.538 C-59.246 230.461 -57.496 230.479 -54 231 C-51.189 232.939 -50.604 234.729 -50 238 C-49.918 240.389 -49.893 242.781 -49.902 245.172 C-49.905 246.421 -49.907 247.669 -49.91 248.956 C-49.919 250.538 -49.928 252.12 -49.938 253.75 C-49.958 258.783 -49.979 263.815 -50 269 C-37.46 269 -24.92 269 -12 269 C-11.687 252.187 -11.687 252.187 -11.612 246.891 C-11.58 245.504 -11.546 244.117 -11.512 242.73 C-11.509 242.371 -11.509 242.371 -11.493 240.552 C-11.346 235.485 -11.346 235.485 -9.62 233.068 C-7.388 231.597 -5.663 231.195 -3 231 C-0.294 231.977 0.703 232.405 2 235 C2.156 237.551 2.258 240.079 2.316 242.633 C2.337 243.385 2.358 244.136 2.379 244.911 C2.445 247.316 2.504 249.72 2.562 252.125 C2.606 253.754 2.649 255.383 2.693 257.012 C2.801 261.008 2.902 265.004 3 269 C8.251 269.025 13.502 269.043 18.753 269.055 C20.541 269.06 22.329 269.067 24.116 269.075 C26.681 269.088 29.245 269.093 31.809 269.098 C32.211 269.1 32.211 269.1 34.245 269.113 C36.164 269.113 38.082 269.062 40 269 C42.031 266.969 41.257 262.822 41.316 260.027 C41.327 259.629 41.327 259.629 41.379 257.61 C41.445 255.053 41.504 252.495 41.562 249.938 C41.606 248.208 41.649 246.478 41.693 244.748 C41.801 240.499 41.902 236.249 42 232 C45.3 231.67 48.6 231.34 52 231 C55.025 235.159 55.466 238.707 55.512 243.707 C55.528 244.351 55.545 244.994 55.562 245.658 C55.62 248.042 55.652 250.427 55.688 252.812 C55.791 258.154 55.894 263.496 56 269 C68.21 269 80.42 269 93 269 C93 247.55 93 226.1 93 204 C28.32 204 -36.36 204 -103 204 Z M-83.098 284.227 C-83.896 284.237 -84.694 284.247 -85.516 284.257 C-101.345 284.455 -117.172 284.738 -133 285 C-132.67 316.35 -132.34 347.7 -132 380 C-116.16 380 -100.32 380 -84 380 C-83.963 375.198 -83.925 370.396 -83.887 365.449 C-83.856 362.409 -83.825 359.37 -83.791 356.33 C-83.737 351.504 -83.686 346.678 -83.654 341.852 C-83.628 337.961 -83.587 334.071 -83.537 330.181 C-83.52 328.696 -83.509 327.211 -83.502 325.725 C-83.493 323.647 -83.465 321.569 -83.432 319.491 C-83.421 318.307 -83.41 317.124 -83.399 315.904 C-83 313 -83 313 -81.692 311.118 C-78.833 309.229 -76.306 309.646 -73 310 C-71.308 311.118 -71.308 311.118 -70 313 C-69.601 315.904 -69.601 315.904 -69.568 319.491 C-69.563 319.818 -69.563 319.818 -69.537 321.473 C-69.507 323.632 -69.497 325.79 -69.488 327.949 C-69.471 329.447 -69.453 330.945 -69.434 332.443 C-69.386 336.383 -69.357 340.324 -69.33 344.265 C-69.295 348.994 -69.238 353.723 -69.185 358.452 C-69.106 365.634 -69.056 372.817 -69 380 C-50.19 380 -31.38 380 -12 380 C-11.963 375.27 -11.925 370.541 -11.887 365.668 C-11.856 362.674 -11.825 359.68 -11.791 356.686 C-11.737 351.932 -11.686 347.178 -11.654 342.425 C-11.628 338.592 -11.587 334.761 -11.537 330.929 C-11.52 329.466 -11.509 328.003 -11.502 326.54 C-11.493 324.493 -11.465 322.446 -11.432 320.399 C-11.421 319.233 -11.41 318.068 -11.399 316.866 C-11 314 -11 314 -9.657 312.159 C-7.097 310.368 -5.101 310.063 -2 310 C0.897 312.142 1.889 313.368 2.519 316.949 C2.528 318.095 2.537 319.24 2.546 320.421 C2.566 321.722 2.585 323.023 2.606 324.363 C2.607 325.779 2.609 327.194 2.609 328.609 C2.624 330.061 2.641 331.513 2.659 332.964 C2.703 336.778 2.723 340.592 2.738 344.406 C2.761 348.986 2.814 353.566 2.861 358.145 C2.93 365.097 2.961 372.048 3 379 C21.48 379 39.96 379 59 379 C59.037 374.343 59.075 369.685 59.113 364.887 C59.144 361.938 59.175 358.99 59.209 356.041 C59.263 351.36 59.314 346.679 59.346 341.997 C59.372 338.223 59.413 334.45 59.463 330.676 C59.48 329.236 59.491 327.795 59.498 326.355 C59.507 324.339 59.537 322.323 59.568 320.307 C59.573 319.733 59.573 319.733 59.601 316.828 C60 314 60 314 61.343 312.164 C63.902 310.366 65.896 310.063 69 310 C71.897 312.142 72.889 313.368 73.519 316.949 C73.528 318.095 73.537 319.24 73.546 320.421 C73.566 321.722 73.585 323.023 73.606 324.363 C73.607 325.779 73.609 327.194 73.609 328.609 C73.624 330.061 73.641 331.513 73.659 332.964 C73.703 336.778 73.723 340.592 73.738 344.406 C73.761 348.986 73.814 353.566 73.861 358.145 C73.93 365.097 73.961 372.048 74 379 C90.17 379 106.34 379 123 379 C123 347.65 123 316.3 123 284 C79.759 283.96 79.759 283.96 61.109 283.951 C48.421 283.945 35.733 283.939 23.045 283.925 C10.79 283.911 -1.464 283.903 -13.719 283.902 C-14.722 283.902 -15.725 283.902 -16.759 283.902 C-38.873 283.903 -60.985 283.957 -83.098 284.227 Z " fill="#000000" transform="translate(277,70)"/>
</svg>
