<?xml version="1.0" encoding="UTF-8"?>
<!-- Generator: visioncortex VTracer 0.6.12 -->
<svg version="1.1" xmlns="http://www.w3.org/2000/svg" width="538" height="540">
<path d="M0 0 C31.381 -0.098 62.761 -0.14 94.142 -0.139 C94.878 -0.139 95.613 -0.139 96.372 -0.139 C97.108 -0.139 97.845 -0.139 98.604 -0.139 C98.973 -0.139 98.973 -0.139 100.84 -0.139 C102.333 -0.139 103.825 -0.138 105.318 -0.138 C117.502 -0.138 129.686 -0.148 141.869 -0.162 C154.55 -0.176 167.23 -0.183 179.91 -0.182 C186.964 -0.182 194.018 -0.184 201.072 -0.195 C207.632 -0.205 214.192 -0.205 220.752 -0.198 C223.154 -0.197 225.557 -0.199 227.959 -0.205 C231.229 -0.213 234.498 -0.208 237.767 -0.2 C238.244 -0.203 238.244 -0.203 240.655 -0.216 C249.019 -0.172 249.019 -0.172 252.801 2.047 C255.129 5.538 255.304 6.939 254.801 11.047 C252.569 13.895 251.251 14.897 247.801 16.047 C245.888 16.142 243.971 16.178 242.055 16.181 C240.85 16.185 239.645 16.19 238.403 16.195 C237.059 16.194 235.714 16.194 234.37 16.194 C232.947 16.197 231.524 16.201 230.101 16.205 C226.182 16.215 222.263 16.219 218.344 16.222 C214.121 16.225 209.898 16.235 205.675 16.244 C195.474 16.263 185.273 16.274 175.072 16.282 C170.271 16.287 165.47 16.292 160.67 16.297 C144.718 16.314 128.766 16.329 112.815 16.336 C108.675 16.338 104.535 16.34 100.395 16.342 C99.88 16.342 99.88 16.342 97.276 16.343 C80.592 16.352 63.909 16.377 47.225 16.41 C30.107 16.443 12.989 16.461 -4.128 16.464 C-13.744 16.466 -23.359 16.475 -32.975 16.5 C-41.161 16.522 -49.346 16.53 -57.532 16.52 C-61.711 16.516 -65.889 16.518 -70.068 16.537 C-73.89 16.555 -77.713 16.554 -81.535 16.538 C-82.921 16.536 -84.306 16.54 -85.692 16.552 C-87.57 16.567 -89.449 16.555 -91.327 16.542 C-92.372 16.543 -93.417 16.544 -94.493 16.545 C-97.914 15.915 -99.069 14.745 -101.199 12.047 C-102.261 9.109 -102.261 9.109 -102.199 6.047 C-100.564 3.427 -99.843 2.479 -97.199 1.047 C-92.675 0.253 -88.144 0.329 -83.565 0.346 C-82.112 0.334 -80.66 0.319 -79.207 0.302 C-75.144 0.262 -71.081 0.254 -67.018 0.251 C-62.542 0.243 -58.066 0.206 -53.589 0.174 C-43.154 0.106 -32.719 0.081 -22.284 0.061 C-14.856 0.047 -7.428 0.024 0 0 Z " fill="#000000" transform="translate(180.19879150390625,61.95318603515625)"/>
<path d="M0 0 C1.107 -0.01 2.214 -0.02 3.354 -0.03 C4.57 -0.02 5.786 -0.011 7.039 -0.001 C8.33 -0.006 9.622 -0.012 10.953 -0.017 C14.541 -0.032 18.129 -0.022 21.717 -0.008 C25.585 0.003 29.454 -0.008 33.322 -0.018 C40.902 -0.031 48.481 -0.024 56.06 -0.009 C64.881 0.008 73.702 0.005 82.523 0.001 C98.258 -0.005 113.993 0.009 129.728 0.034 C145.007 0.058 160.286 0.065 175.565 0.055 C192.192 0.043 208.82 0.041 225.447 0.056 C227.219 0.057 228.991 0.059 230.763 0.06 C231.635 0.061 232.506 0.062 233.405 0.062 C239.558 0.067 245.711 0.065 251.864 0.061 C259.359 0.056 266.854 0.062 274.348 0.082 C278.174 0.092 282.001 0.097 285.827 0.089 C289.968 0.081 294.109 0.096 298.251 0.113 C299.469 0.107 300.687 0.101 301.942 0.095 C303.046 0.103 304.15 0.112 305.288 0.12 C305.766 0.121 305.766 0.121 308.187 0.123 C310.581 0.501 310.581 0.501 312.357 1.809 C314.37 4.591 314.463 7.13 314.581 10.501 C312.888 13.717 312.069 14.338 308.581 15.501 C306.829 15.595 305.074 15.631 303.319 15.635 C302.222 15.639 301.125 15.644 299.994 15.648 C298.784 15.648 297.574 15.648 296.327 15.648 C295.045 15.651 293.763 15.655 292.442 15.659 C288.876 15.669 285.311 15.673 281.745 15.675 C277.902 15.679 274.06 15.689 270.217 15.697 C260.936 15.717 251.654 15.727 242.372 15.736 C238.004 15.741 233.635 15.746 229.267 15.751 C214.752 15.768 200.236 15.783 185.72 15.79 C181.953 15.792 178.186 15.794 174.419 15.796 C173.951 15.796 173.951 15.796 171.582 15.797 C156.401 15.806 141.221 15.831 126.04 15.863 C110.464 15.896 94.888 15.914 79.312 15.918 C70.562 15.92 61.813 15.929 53.064 15.954 C45.616 15.976 38.168 15.984 30.719 15.974 C26.917 15.97 23.115 15.972 19.313 15.991 C15.196 16.012 11.08 16.002 6.963 15.988 C6.359 15.994 6.359 15.994 3.302 16.022 C2.752 16.017 2.752 16.017 -0.031 15.996 C-0.982 15.997 -1.933 15.998 -2.912 15.999 C-6.199 15.346 -7.389 14.121 -9.419 11.501 C-9.919 8.001 -9.919 8.001 -9.419 4.501 C-6.543 0.784 -4.641 0.001 0 0 Z " fill="#000000" transform="translate(149.41890048980713,117.49942874908447)"/>
<path d="M0 0 C11.999 -0.109 23.998 -0.14 35.997 -0.151 C39.044 -0.154 42.09 -0.158 45.136 -0.163 C54.71 -0.176 64.284 -0.186 73.858 -0.19 C84.843 -0.194 95.828 -0.212 106.813 -0.241 C115.374 -0.263 123.935 -0.273 132.496 -0.274 C137.585 -0.275 142.673 -0.281 147.762 -0.299 C152.518 -0.315 157.274 -0.317 162.03 -0.309 C163.773 -0.308 165.515 -0.312 167.258 -0.322 C169.635 -0.335 172.011 -0.329 174.387 -0.319 C175.077 -0.327 175.766 -0.335 176.476 -0.343 C180.768 -0.299 183.444 0.421 186.852 3.049 C188.852 6.049 188.852 6.049 188.852 9.549 C187.852 13.049 187.852 13.049 185.357 14.743 C181.002 16.366 177.38 16.473 172.774 16.443 C171.87 16.449 170.966 16.456 170.035 16.462 C167.011 16.478 163.987 16.474 160.963 16.469 C158.793 16.476 156.623 16.485 154.453 16.495 C148.563 16.517 142.673 16.52 136.782 16.518 C131.867 16.518 126.951 16.526 122.035 16.535 C110.441 16.554 98.847 16.557 87.253 16.55 C75.285 16.543 63.318 16.566 51.351 16.603 C41.079 16.634 30.807 16.645 20.535 16.641 C14.399 16.639 8.262 16.645 2.126 16.669 C-3.642 16.692 -9.409 16.69 -15.177 16.669 C-17.296 16.666 -19.414 16.671 -21.532 16.685 C-24.421 16.703 -27.308 16.691 -30.197 16.67 C-31.038 16.683 -31.879 16.695 -32.746 16.708 C-37.031 16.643 -38.672 16.418 -42.172 13.702 C-44.148 11.049 -44.148 11.049 -44.71 7.986 C-44.009 4.325 -43.064 3.33 -40.148 1.049 C-37.181 0.506 -37.181 0.506 -33.653 0.447 C-33.003 0.431 -32.353 0.415 -31.684 0.398 C-29.508 0.35 -27.333 0.331 -25.157 0.312 C-23.592 0.284 -22.027 0.256 -20.462 0.225 C-13.642 0.106 -6.821 0.065 0 0 Z " fill="#000000" transform="translate(213.14763641357422,171.95103454589844)"/>
<path d="M0 0 C0.911 -0.003 1.821 -0.006 2.759 -0.009 C5.817 -0.018 8.874 -0.019 11.932 -0.021 C14.122 -0.025 16.311 -0.03 18.501 -0.036 C24.453 -0.049 30.405 -0.055 36.358 -0.06 C40.075 -0.063 43.791 -0.067 47.508 -0.071 C59.799 -0.086 72.091 -0.095 84.382 -0.099 C84.713 -0.099 84.713 -0.099 86.39 -0.1 C86.721 -0.1 86.721 -0.1 88.4 -0.1 C99.153 -0.104 109.907 -0.122 120.66 -0.145 C131.702 -0.169 142.743 -0.181 153.785 -0.182 C159.984 -0.184 166.183 -0.189 172.382 -0.207 C178.21 -0.224 184.038 -0.226 189.867 -0.217 C192.008 -0.216 194.149 -0.221 196.29 -0.231 C199.209 -0.243 202.127 -0.238 205.046 -0.227 C205.472 -0.231 205.472 -0.231 207.623 -0.251 C212.264 -0.212 215.334 0.108 219.087 3.14 C221.087 6.14 221.087 6.14 220.899 9.14 C220.068 12.208 219.644 13.341 217.087 15.14 C212.819 16.441 208.557 16.285 204.135 16.281 C203.221 16.284 202.306 16.287 201.364 16.29 C198.292 16.299 195.221 16.3 192.149 16.302 C189.95 16.306 187.751 16.311 185.551 16.317 C179.572 16.33 173.593 16.336 167.614 16.341 C163.88 16.344 160.147 16.348 156.413 16.352 C144.738 16.366 133.062 16.375 121.386 16.379 C120.043 16.38 118.7 16.38 117.356 16.381 C117.023 16.381 117.023 16.381 115.337 16.381 C104.535 16.385 93.733 16.403 82.931 16.426 C71.84 16.45 60.749 16.462 49.658 16.463 C43.431 16.464 37.204 16.47 30.977 16.488 C25.122 16.505 19.268 16.507 13.413 16.498 C11.262 16.497 9.112 16.502 6.961 16.512 C4.029 16.524 1.097 16.518 -1.835 16.508 C-2.262 16.512 -2.262 16.512 -4.424 16.532 C-9.07 16.493 -12.143 16.168 -15.913 13.14 C-17.334 10.3 -17.228 8.286 -16.913 5.14 C-12.462 -0.742 -6.846 -0.007 0 0 Z " fill="#000000" transform="translate(138.91331481933594,225.85955810546875)"/>
<path d="M0 0 C0.695 -0.004 1.39 -0.007 2.105 -0.011 C4.433 -0.022 6.761 -0.026 9.088 -0.03 C10.757 -0.036 12.426 -0.043 14.095 -0.05 C19.573 -0.071 25.051 -0.081 30.53 -0.091 C32.415 -0.095 34.301 -0.099 36.187 -0.103 C45.042 -0.123 53.896 -0.137 62.751 -0.145 C72.978 -0.155 83.206 -0.181 93.433 -0.222 C101.336 -0.252 109.239 -0.267 117.143 -0.27 C121.865 -0.272 126.586 -0.281 131.308 -0.306 C135.747 -0.33 140.186 -0.334 144.625 -0.324 C146.255 -0.323 147.885 -0.329 149.515 -0.343 C151.739 -0.361 153.961 -0.354 156.184 -0.341 C157.429 -0.343 158.674 -0.345 159.956 -0.348 C163.691 0.242 164.834 1.173 167.092 4.147 C168.155 7.085 168.155 7.085 168.092 10.147 C165.518 13.449 163.995 14.97 159.839 15.786 C158.597 15.793 157.356 15.8 156.077 15.807 C155.383 15.817 154.689 15.828 153.974 15.838 C151.653 15.867 149.335 15.861 147.014 15.854 C145.348 15.868 143.682 15.883 142.017 15.901 C137.496 15.942 132.976 15.951 128.455 15.955 C123.722 15.963 118.99 15.997 114.257 16.027 C106.309 16.074 98.361 16.101 90.413 16.116 C81.227 16.134 72.041 16.18 62.855 16.241 C54.016 16.3 45.177 16.342 36.338 16.374 C32.577 16.388 28.817 16.408 25.057 16.432 C20.627 16.459 16.197 16.471 11.767 16.472 C10.143 16.474 8.518 16.482 6.894 16.495 C4.674 16.512 2.454 16.51 0.234 16.504 C-1.008 16.507 -2.249 16.511 -3.529 16.515 C-7.281 16.107 -9.702 15.111 -12.908 13.147 C-14.313 10.338 -14.157 8.259 -13.908 5.147 C-12.617 2.759 -11.818 1.471 -9.23 0.551 C-6.13 0.012 -3.147 0.011 0 0 Z " fill="#000000" transform="translate(219.907958984375,280.8528289794922)"/>
<path d="M0 0 C1.239 -0.011 2.479 -0.023 3.756 -0.034 C5.121 -0.026 6.487 -0.018 7.852 -0.01 C9.297 -0.015 10.741 -0.022 12.185 -0.031 C16.1 -0.049 20.015 -0.042 23.93 -0.029 C28.027 -0.019 32.124 -0.029 36.222 -0.035 C43.1 -0.042 49.978 -0.033 56.856 -0.014 C64.811 0.008 72.766 0.001 80.722 -0.021 C87.552 -0.039 94.382 -0.042 101.211 -0.031 C105.291 -0.025 109.37 -0.024 113.45 -0.037 C117.283 -0.049 121.116 -0.041 124.949 -0.018 C126.357 -0.012 127.766 -0.014 129.174 -0.023 C131.093 -0.034 133.012 -0.018 134.93 0 C135.468 0.001 135.468 0.001 138.187 0.005 C140.838 0.508 140.838 0.508 142.684 2.317 C144.368 5.514 144.225 7.958 143.838 11.508 C142.007 14.124 140.929 14.478 137.838 15.508 C135.894 15.61 133.946 15.652 132 15.662 C130.781 15.67 129.563 15.679 128.308 15.688 C126.955 15.692 125.603 15.697 124.251 15.701 C122.828 15.709 121.406 15.717 119.983 15.726 C115.311 15.752 110.639 15.767 105.967 15.781 C104.359 15.787 102.751 15.792 101.143 15.798 C94.456 15.819 87.769 15.838 81.082 15.849 C71.495 15.865 61.909 15.899 52.322 15.956 C45.582 15.994 38.842 16.014 32.102 16.019 C28.076 16.023 24.049 16.035 20.023 16.067 C16.236 16.097 12.451 16.104 8.664 16.092 C7.274 16.092 5.884 16.1 4.494 16.117 C2.597 16.14 0.701 16.129 -1.196 16.116 C-2.258 16.119 -3.32 16.123 -4.413 16.126 C-7.162 15.508 -7.162 15.508 -9.499 13.161 C-11.541 9.902 -11.885 8.284 -11.162 4.508 C-7.523 0.866 -5.093 0.007 0 0 Z " fill="#000000" transform="translate(275.1617736816406,335.4920654296875)"/>
<path d="M0 0 C0.813 -0.007 1.627 -0.013 2.465 -0.02 C5.156 -0.04 7.848 -0.051 10.539 -0.061 C11.458 -0.065 12.377 -0.069 13.324 -0.074 C18.185 -0.094 23.046 -0.109 27.907 -0.118 C32.932 -0.129 37.957 -0.164 42.982 -0.203 C46.843 -0.229 50.705 -0.238 54.566 -0.241 C56.419 -0.246 58.272 -0.258 60.124 -0.276 C62.715 -0.301 65.304 -0.3 67.895 -0.293 C68.278 -0.299 68.278 -0.299 70.217 -0.332 C73.683 -0.298 75.655 -0.084 78.488 1.988 C80.722 5.197 80.557 7.363 80.012 11.177 C78.499 13.363 78.499 13.363 76.012 15.177 C73.123 15.572 70.615 15.724 67.727 15.695 C66.894 15.702 66.061 15.709 65.203 15.716 C62.451 15.733 59.701 15.722 56.949 15.708 C55.037 15.711 53.124 15.715 51.211 15.72 C47.203 15.726 43.195 15.717 39.187 15.698 C34.048 15.676 28.911 15.689 23.772 15.713 C19.823 15.727 15.873 15.723 11.923 15.712 C10.029 15.71 8.134 15.713 6.239 15.722 C3.592 15.732 0.945 15.717 -1.703 15.695 C-2.095 15.699 -2.095 15.699 -4.077 15.719 C-7.573 15.665 -9.615 15.448 -12.479 13.367 C-14.667 10.192 -14.467 7.938 -13.988 4.177 C-10.619 -0.636 -5.327 0.019 0 0 Z " fill="#000000" transform="translate(318.988037109375,389.822998046875)"/>
<path d="M0 0 C0.523 -0.001 0.523 -0.001 3.171 -0.009 C5.38 -0.011 7.589 -0.005 9.798 0.007 C13.176 0.023 16.552 0.007 19.93 -0.012 C22.078 -0.01 24.227 -0.006 26.375 0 C27.383 -0.006 28.392 -0.012 29.431 -0.018 C38.194 0.069 38.194 0.069 42.188 3.398 C43.968 5.826 44.22 6.948 44 9.961 C43.098 12.666 42.39 13.632 40.188 15.398 C38.067 15.908 38.067 15.908 35.64 16.083 C34.75 16.147 33.86 16.211 32.943 16.277 C28.606 16.468 24.286 16.509 19.945 16.453 C19.48 16.447 19.48 16.447 17.125 16.418 C15.177 16.389 13.229 16.357 11.281 16.321 C9.291 16.289 7.302 16.268 5.312 16.258 C2.418 16.243 -0.474 16.195 -3.367 16.141 C-4.256 16.141 -5.144 16.142 -6.06 16.143 C-12.17 15.974 -12.17 15.974 -15.399 13.079 C-16.812 10.398 -16.812 10.398 -16.875 6.773 C-15.812 3.398 -15.812 3.398 -13.922 1.712 C-9.307 -0.238 -4.962 -0.03 0 0 Z " fill="#000000" transform="translate(302.8125,443.6015625)"/>
</svg>
