<?xml version="1.0" encoding="UTF-8"?>
<!-- Generator: visioncortex VTracer 0.6.12 -->
<svg version="1.1" xmlns="http://www.w3.org/2000/svg" width="560" height="576">
<path d="M0 0 C0.325 -0.001 0.325 -0.001 1.968 -0.005 C4.165 -0.01 6.362 -0.007 8.56 -0.005 C10.143 -0.007 11.725 -0.009 13.308 -0.012 C17.674 -0.018 22.04 -0.018 26.406 -0.017 C31.108 -0.017 35.81 -0.022 40.513 -0.027 C49.731 -0.035 58.95 -0.038 68.169 -0.038 C75.659 -0.039 83.15 -0.041 90.64 -0.044 C111.857 -0.053 133.075 -0.058 154.292 -0.057 C154.865 -0.057 154.865 -0.057 157.762 -0.057 C158.335 -0.057 158.335 -0.057 161.235 -0.057 C179.817 -0.056 198.399 -0.066 216.981 -0.08 C236.042 -0.094 255.103 -0.101 274.164 -0.1 C284.873 -0.1 295.582 -0.103 306.291 -0.113 C315.408 -0.122 324.525 -0.125 333.642 -0.118 C338.297 -0.115 342.951 -0.115 347.606 -0.123 C351.863 -0.131 356.121 -0.13 360.378 -0.121 C361.922 -0.119 363.465 -0.121 365.009 -0.127 C367.101 -0.134 369.192 -0.129 371.284 -0.12 C372.448 -0.12 373.612 -0.121 374.811 -0.121 C377.758 0.128 379.379 0.414 381.768 2.129 C384.084 5.393 384.024 8.4 384.038 12.323 C384.047 13.603 384.057 14.882 384.066 16.201 C384.067 17.624 384.067 19.048 384.067 20.471 C384.074 21.98 384.082 23.49 384.091 24.999 C384.112 29.154 384.121 33.308 384.129 37.462 C384.139 41.94 384.16 46.418 384.18 50.896 C384.216 59.671 384.242 68.446 384.264 77.221 C384.282 84.351 384.303 91.482 384.327 98.612 C384.33 99.626 384.334 100.64 384.337 101.684 C384.344 103.744 384.351 105.803 384.358 107.862 C384.421 127.186 384.472 146.51 384.519 165.834 C384.562 183.523 384.622 201.211 384.69 218.9 C384.759 237.052 384.817 255.203 384.863 273.355 C384.889 283.55 384.919 293.745 384.961 303.941 C384.997 312.619 385.022 321.298 385.034 329.977 C385.04 334.407 385.051 338.837 385.075 343.267 C385.097 347.32 385.105 351.373 385.102 355.426 C385.104 356.895 385.11 358.363 385.122 359.831 C385.138 361.824 385.133 363.816 385.127 365.809 C385.13 366.916 385.133 368.024 385.136 369.165 C384.718 372.533 383.774 374.415 381.768 377.129 C378.959 378.533 376.636 378.258 373.492 378.263 C373.165 378.264 373.165 378.264 371.51 378.27 C369.296 378.277 367.083 378.276 364.869 378.276 C363.275 378.279 361.68 378.283 360.086 378.287 C355.688 378.297 351.289 378.301 346.891 378.303 C342.154 378.307 337.417 378.317 332.68 378.326 C321.233 378.345 309.785 378.355 298.337 378.364 C292.951 378.369 287.565 378.374 282.179 378.379 C264.281 378.396 246.384 378.411 228.487 378.418 C223.841 378.42 219.194 378.422 214.548 378.424 C213.97 378.424 213.97 378.424 211.048 378.425 C192.327 378.434 173.607 378.459 154.887 378.491 C135.682 378.524 116.478 378.542 97.273 378.546 C86.484 378.548 75.695 378.557 64.906 378.582 C55.72 378.604 46.535 378.612 37.349 378.602 C32.66 378.598 27.971 378.6 23.281 378.619 C18.991 378.636 14.701 378.636 10.411 378.62 C8.857 378.618 7.302 378.622 5.748 378.634 C3.638 378.649 1.531 378.639 -0.578 378.624 C-1.165 378.624 -1.165 378.624 -4.132 378.627 C-8.014 378.003 -9.616 377.061 -12.232 374.129 C-13.296 369.695 -13.357 365.342 -13.358 360.795 C-13.36 359.561 -13.363 358.326 -13.366 357.054 C-13.364 355.697 -13.361 354.341 -13.359 352.984 C-13.36 351.533 -13.362 350.081 -13.364 348.629 C-13.368 344.649 -13.366 340.669 -13.363 336.689 C-13.36 332.393 -13.364 328.097 -13.367 323.801 C-13.371 315.388 -13.37 306.975 -13.367 298.562 C-13.365 291.724 -13.365 284.885 -13.366 278.047 C-13.366 277.073 -13.366 276.1 -13.366 275.097 C-13.367 273.12 -13.367 271.142 -13.367 269.165 C-13.37 250.621 -13.367 232.077 -13.361 213.533 C-13.357 197.627 -13.358 181.72 -13.362 165.814 C-13.368 147.339 -13.37 128.865 -13.367 110.39 C-13.366 108.42 -13.366 106.449 -13.366 104.478 C-13.366 103.508 -13.365 102.539 -13.365 101.54 C-13.364 94.712 -13.366 87.883 -13.368 81.055 C-13.371 72.731 -13.37 64.406 -13.365 56.082 C-13.362 51.836 -13.361 47.59 -13.365 43.343 C-13.368 39.454 -13.366 35.564 -13.361 31.674 C-13.36 30.27 -13.36 28.865 -13.363 27.461 C-13.394 7.928 -13.394 7.928 -10.294 3.129 C-6.861 -0.2 -4.694 0.003 0 0 Z M2.768 15.129 C2.768 129.969 2.768 244.809 2.768 363.129 C123.548 363.129 244.328 363.129 368.768 363.129 C368.768 248.289 368.768 133.449 368.768 15.129 C247.988 15.129 127.208 15.129 2.768 15.129 Z " fill="#000000" transform="translate(95.23199272155762,99.87136554718018)"/>
<path d="M0 0 C1.133 -0.007 2.265 -0.014 3.432 -0.021 C7.236 -0.039 11.038 -0.021 14.842 -0.003 C17.565 -0.005 20.288 -0.015 23.011 -0.025 C29.645 -0.043 36.278 -0.034 42.912 -0.017 C48.302 -0.002 53.692 0.001 59.083 -0.002 C59.466 -0.002 59.466 -0.002 61.407 -0.003 C62.965 -0.004 64.523 -0.005 66.081 -0.007 C79.859 -0.015 93.636 0.002 107.414 0.031 C120.788 0.06 134.162 0.067 147.535 0.052 C162.095 0.035 176.655 0.031 191.215 0.048 C192.766 0.05 194.318 0.052 195.87 0.054 C196.252 0.054 196.252 0.054 198.184 0.057 C203.57 0.062 208.955 0.059 214.34 0.052 C220.901 0.045 227.462 0.051 234.022 0.077 C237.371 0.089 240.719 0.093 244.067 0.084 C247.694 0.075 251.32 0.091 254.946 0.114 C256.009 0.105 257.072 0.097 258.167 0.089 C265.153 0.168 265.153 0.168 268.532 2.223 C271.753 7.848 271.06 14.777 271.064 21.092 C271.068 22.026 271.072 22.959 271.077 23.921 C271.09 27.038 271.096 30.156 271.103 33.273 C271.11 35.512 271.119 37.752 271.127 39.991 C271.153 47.331 271.169 54.671 271.183 62.011 C271.188 64.539 271.194 67.067 271.199 69.595 C271.221 80.106 271.24 90.616 271.251 101.127 C271.254 103.849 271.257 106.571 271.26 109.294 C271.26 109.632 271.26 109.632 271.262 111.344 C271.275 122.32 271.308 133.297 271.35 144.273 C271.392 155.55 271.415 166.826 271.421 178.103 C271.424 184.432 271.437 190.76 271.469 197.089 C271.499 203.036 271.505 208.984 271.493 214.931 C271.493 217.116 271.502 219.3 271.519 221.485 C271.542 224.463 271.534 227.44 271.518 230.418 C271.532 231.286 271.545 232.154 271.56 233.048 C271.507 237.051 271.181 239.182 269.067 242.665 C264.367 245.588 260.218 245.317 254.781 245.256 C254.213 245.26 254.213 245.26 251.337 245.278 C247.52 245.296 243.703 245.277 239.886 245.259 C237.153 245.262 234.42 245.272 231.687 245.281 C225.029 245.299 218.372 245.291 211.714 245.273 C206.304 245.259 200.894 245.255 195.484 245.258 C194.715 245.259 193.945 245.259 193.152 245.26 C191.588 245.261 190.025 245.262 188.461 245.263 C174.633 245.272 160.806 245.255 146.978 245.225 C133.556 245.196 120.133 245.189 106.711 245.205 C92.099 245.221 77.486 245.225 62.874 245.208 C61.316 245.206 59.759 245.204 58.201 245.202 C57.818 245.202 57.818 245.202 55.879 245.2 C50.474 245.194 45.069 245.197 39.664 245.204 C33.08 245.212 26.495 245.205 19.911 245.18 C16.55 245.167 13.19 245.163 9.83 245.172 C6.19 245.181 2.551 245.165 -1.089 245.143 C-1.622 245.147 -1.622 245.147 -4.321 245.168 C-11.389 245.088 -11.389 245.088 -14.715 242.909 C-17.264 238.682 -17.216 234.62 -17.217 229.781 C-17.22 228.608 -17.223 227.435 -17.226 226.227 C-17.224 224.946 -17.222 223.665 -17.22 222.345 C-17.221 220.972 -17.223 219.599 -17.225 218.226 C-17.229 214.481 -17.228 210.736 -17.225 206.991 C-17.223 203.822 -17.225 200.653 -17.226 197.485 C-17.232 187.266 -17.227 177.047 -17.218 166.828 C-17.215 164.199 -17.213 161.57 -17.211 158.941 C-17.195 136.036 -17.157 113.131 -17.105 90.226 C-17.094 85.443 -17.085 80.66 -17.079 75.877 C-17.062 64.005 -17.028 52.134 -16.936 40.262 C-16.911 37.064 -16.898 33.865 -16.895 30.667 C-16.891 26.389 -16.847 22.113 -16.797 17.835 C-16.801 16.637 -16.805 15.44 -16.809 14.206 C-16.799 13.667 -16.799 13.667 -16.75 10.944 C-16.743 10.028 -16.736 9.112 -16.73 8.168 C-14.546 -0.508 -7.383 -0.082 0 0 Z M-1.09 15.628 C-1.09 36.088 -1.09 56.548 -1.09 77.628 C83.39 77.628 167.87 77.628 254.91 77.628 C254.91 57.168 254.91 36.708 254.91 15.628 C170.43 15.628 85.95 15.628 -1.09 15.628 Z M-1.09 92.628 C-1.09 112.758 -1.09 132.888 -1.09 153.628 C83.39 153.628 167.87 153.628 254.91 153.628 C254.91 133.498 254.91 113.368 254.91 92.628 C170.43 92.628 85.95 92.628 -1.09 92.628 Z M-1.09 168.628 C-1.09 188.758 -1.09 208.888 -1.09 229.628 C83.39 229.628 167.87 229.628 254.91 229.628 C264.003 211.442 255.254 188.959 254.91 168.628 C170.43 168.628 85.95 168.628 -1.09 168.628 Z " fill="#000000" transform="translate(154.09034729003906,166.37181091308594)"/>
</svg>
